<svg xmlns="http://www.w3.org/2000/svg" xmlns:xlink="http://www.w3.org/1999/xlink" width="1145" zoomAndPan="magnify" viewBox="0 0 858.75 342.749987" height="457" preserveAspectRatio="xMidYMid meet" version="1.0"><defs><g/><clipPath id="a21a158415"><path d="M 150 0 L 709 0 L 709 342.5 L 150 342.5 Z M 150 0 " clip-rule="nonzero"/></clipPath><clipPath id="188cb2b53a"><rect x="0" width="559" y="0" height="343"/></clipPath><clipPath id="fb6cbe43fb"><path d="M 280.675781 17.972656 L 402.835938 17.972656 L 402.835938 149.878906 L 280.675781 149.878906 Z M 280.675781 17.972656 " clip-rule="nonzero"/></clipPath><clipPath id="ff23f3d2fe"><path d="M 553.203125 17.972656 L 675.363281 17.972656 L 675.363281 149.878906 L 553.203125 149.878906 Z M 553.203125 17.972656 " clip-rule="nonzero"/></clipPath><clipPath id="6a4507a420"><path d="M 0.203125 0.972656 L 122.351562 0.972656 L 122.351562 132.878906 L 0.203125 132.878906 Z M 0.203125 0.972656 " clip-rule="nonzero"/></clipPath><clipPath id="700fc4a0c4"><rect x="0" width="123" y="0" height="133"/></clipPath><clipPath id="b69d175bfb"><path d="M 423.605469 18 L 468.570312 18 L 468.570312 149.878906 L 423.605469 149.878906 Z M 423.605469 18 " clip-rule="nonzero"/></clipPath></defs><g clip-path="url(#a21a158415)"><g transform="matrix(1, 0, 0, 1, 150, 0)"><g clip-path="url(#188cb2b53a)"><g fill="#000000" fill-opacity="1"><g transform="translate(235.562, 135.59899)"><g/></g></g><g fill="#000000" fill-opacity="1"><g transform="translate(1.007195, 294.099068)"><g><path d="M 49.578125 -57.015625 C 44.609375 -57.015625 40.335938 -55.175781 36.765625 -51.5 C 33.191406 -47.832031 31.40625 -43.421875 31.40625 -38.265625 C 31.40625 -33.003906 33.191406 -28.535156 36.765625 -24.859375 C 40.335938 -21.191406 44.609375 -19.359375 49.578125 -19.359375 C 51.953125 -19.359375 54.207031 -19.65625 56.34375 -20.25 C 58.476562 -20.84375 60.039062 -21.4375 61.03125 -22.03125 L 62.375 -22.921875 L 71.3125 -4.609375 C 70.613281 -4.117188 69.644531 -3.5 68.40625 -2.75 C 67.164062 -2.007812 64.335938 -0.992188 59.921875 0.296875 C 55.503906 1.585938 50.765625 2.234375 45.703125 2.234375 C 34.484375 2.234375 24.628906 -1.707031 16.140625 -9.59375 C 7.660156 -17.488281 3.421875 -26.945312 3.421875 -37.96875 C 3.421875 -49.082031 7.660156 -58.632812 16.140625 -66.625 C 24.628906 -74.613281 34.484375 -78.609375 45.703125 -78.609375 C 50.765625 -78.609375 55.425781 -78.007812 59.6875 -76.8125 C 63.957031 -75.625 66.988281 -74.4375 68.78125 -73.25 L 71.3125 -71.453125 L 62.375 -53.453125 C 59.101562 -55.828125 54.835938 -57.015625 49.578125 -57.015625 Z M 49.578125 -57.015625 "/></g></g></g><g fill="#000000" fill-opacity="1"><g transform="translate(74.107199, 294.099068)"><g><path d="M 16.140625 -9.078125 C 7.660156 -16.617188 3.421875 -26.296875 3.421875 -38.109375 C 3.421875 -49.921875 7.835938 -59.625 16.671875 -67.21875 C 25.503906 -74.8125 36.421875 -78.609375 49.421875 -78.609375 C 62.222656 -78.609375 73.015625 -74.785156 81.796875 -67.140625 C 90.585938 -59.492188 94.984375 -49.816406 94.984375 -38.109375 C 94.984375 -26.398438 90.691406 -16.75 82.109375 -9.15625 C 73.523438 -1.5625 62.628906 2.234375 49.421875 2.234375 C 35.722656 2.234375 24.628906 -1.535156 16.140625 -9.078125 Z M 36.546875 -51.0625 C 33.117188 -47.6875 31.40625 -43.367188 31.40625 -38.109375 C 31.40625 -32.847656 33.039062 -28.554688 36.3125 -25.234375 C 39.59375 -21.910156 43.914062 -20.25 49.28125 -20.25 C 54.4375 -20.25 58.675781 -21.9375 62 -25.3125 C 65.332031 -28.6875 67 -32.953125 67 -38.109375 C 67 -43.367188 65.285156 -47.6875 61.859375 -51.0625 C 58.429688 -54.4375 54.238281 -56.125 49.28125 -56.125 C 44.21875 -56.125 39.972656 -54.4375 36.546875 -51.0625 Z M 36.546875 -51.0625 "/></g></g></g><g fill="#000000" fill-opacity="1"><g transform="translate(172.516757, 294.099068)"><g><path d="M 14.140625 -9.453125 C 6.992188 -17.242188 3.421875 -26.796875 3.421875 -38.109375 C 3.421875 -49.421875 6.992188 -59 14.140625 -66.84375 C 21.285156 -74.6875 30.367188 -78.609375 41.390625 -78.609375 C 51.515625 -78.609375 59.847656 -75.429688 66.390625 -69.078125 L 66.390625 -128.03125 L 92.75 -128.03125 L 92.75 0 L 66.703125 0 L 66.703125 -8.640625 L 66.390625 -8.640625 C 59.847656 -1.390625 51.515625 2.234375 41.390625 2.234375 C 30.367188 2.234375 21.285156 -1.660156 14.140625 -9.453125 Z M 36.546875 -51.0625 C 33.117188 -47.6875 31.40625 -43.367188 31.40625 -38.109375 C 31.40625 -32.847656 33.039062 -28.554688 36.3125 -25.234375 C 39.59375 -21.910156 43.914062 -20.25 49.28125 -20.25 C 54.4375 -20.25 58.675781 -21.9375 62 -25.3125 C 65.332031 -28.6875 67 -32.953125 67 -38.109375 C 67 -43.367188 65.285156 -47.6875 61.859375 -51.0625 C 58.429688 -54.4375 54.238281 -56.125 49.28125 -56.125 C 44.21875 -56.125 39.972656 -54.4375 36.546875 -51.0625 Z M 36.546875 -51.0625 "/></g></g></g><g fill="#000000" fill-opacity="1"><g transform="translate(274.201667, 294.099068)"><g><path d="M 11.453125 -118.953125 C 14.535156 -122.023438 18.207031 -123.5625 22.46875 -123.5625 C 26.738281 -123.5625 30.410156 -122.023438 33.484375 -118.953125 C 36.566406 -115.878906 38.109375 -112.207031 38.109375 -107.9375 C 38.109375 -103.664062 36.566406 -99.988281 33.484375 -96.90625 C 30.410156 -93.832031 26.738281 -92.296875 22.46875 -92.296875 C 18.207031 -92.296875 14.535156 -93.832031 11.453125 -96.90625 C 8.378906 -99.988281 6.84375 -103.664062 6.84375 -107.9375 C 6.84375 -112.207031 8.378906 -115.878906 11.453125 -118.953125 Z M 8.9375 -76.375 L 8.9375 0 L 35.28125 0 L 35.28125 -76.375 Z M 8.9375 -76.375 "/></g></g></g><g fill="#000000" fill-opacity="1"><g transform="translate(319.16339, 294.099068)"><g><path d="M 96.171875 -76.375 L 59.84375 -39.90625 L 99.75 0 L 65.796875 0 L 35.28125 -30.515625 L 35.28125 0 L 8.9375 0 L 8.9375 -128.03125 L 35.28125 -128.03125 L 35.28125 -49.71875 L 61.9375 -76.375 Z M 96.171875 -76.375 "/></g></g></g><g fill="#000000" fill-opacity="1"><g transform="translate(411.617781, 294.099068)"><g><path d="M 14.140625 -9.453125 C 6.992188 -17.242188 3.421875 -26.796875 3.421875 -38.109375 C 3.421875 -49.421875 6.992188 -59 14.140625 -66.84375 C 21.285156 -74.6875 30.367188 -78.609375 41.390625 -78.609375 C 51.515625 -78.609375 59.847656 -75.429688 66.390625 -69.078125 L 66.390625 -76.375 L 92.75 -76.375 L 92.75 0 L 66.703125 0 L 66.703125 -8.640625 L 66.390625 -8.640625 C 59.847656 -1.390625 51.515625 2.234375 41.390625 2.234375 C 30.367188 2.234375 21.285156 -1.660156 14.140625 -9.453125 Z M 36.546875 -51.0625 C 33.117188 -47.6875 31.40625 -43.367188 31.40625 -38.109375 C 31.40625 -32.847656 33.039062 -28.554688 36.3125 -25.234375 C 39.59375 -21.910156 43.914062 -20.25 49.28125 -20.25 C 54.4375 -20.25 58.675781 -21.9375 62 -25.3125 C 65.332031 -28.6875 67 -32.953125 67 -38.109375 C 67 -43.367188 65.285156 -47.6875 61.859375 -51.0625 C 58.429688 -54.4375 54.238281 -56.125 49.28125 -56.125 C 44.21875 -56.125 39.972656 -54.4375 36.546875 -51.0625 Z M 36.546875 -51.0625 "/></g></g></g><g fill="#000000" fill-opacity="1"><g transform="translate(513.302676, 294.099068)"><g><path d="M 8.9375 0 L 8.9375 -128.03125 L 35.28125 -128.03125 L 35.28125 0 Z M 8.9375 0 "/></g></g></g></g></g></g><g clip-path="url(#fb6cbe43fb)"><path fill="#ff9e45" d="M 280.796875 98.6875 L 280.796875 68.820312 C 310.773438 62.632812 370.347656 39.265625 402.714844 17.972656 L 402.714844 52.675781 C 387.570312 62.976562 355.546875 76.703125 332.8125 83.582031 C 354.855469 89.421875 387.222656 104.875 402.714844 114.832031 L 402.714844 149.878906 C 370.347656 130.28125 313.167969 106.601562 280.796875 98.6875 Z M 280.796875 98.6875 " fill-opacity="1" fill-rule="nonzero"/></g><g clip-path="url(#ff23f3d2fe)"><g transform="matrix(1, 0, 0, 1, 553, 17)"><g clip-path="url(#700fc4a0c4)"><g clip-path="url(#6a4507a420)"><path fill="#ff9e45" d="M 122.230469 81.6875 L 122.230469 51.820312 C 92.257812 45.632812 32.683594 22.265625 0.316406 0.972656 L 0.316406 35.675781 C 15.460938 45.976562 47.484375 59.703125 70.214844 66.582031 C 48.175781 72.421875 15.804688 87.875 0.316406 97.832031 L 0.316406 132.878906 C 32.683594 113.28125 89.863281 89.601562 122.230469 81.6875 Z M 122.230469 81.6875 " fill-opacity="1" fill-rule="nonzero"/></g></g></g></g><g clip-path="url(#b69d175bfb)"><path fill="#ff9e45" d="M 447.457031 18.105469 L 468.722656 18.105469 L 444.867188 150.074219 L 423.605469 150.074219 Z M 447.457031 18.105469 " fill-opacity="1" fill-rule="nonzero"/></g></svg>
