<svg xmlns="http://www.w3.org/2000/svg" xmlns:xlink="http://www.w3.org/1999/xlink" width="1145" zoomAndPan="magnify" viewBox="0 0 858.75 513.750007" height="685" preserveAspectRatio="xMidYMid meet" version="1.0"><defs><g/><clipPath id="f2bec1ed05"><path d="M 206.488281 26.949219 L 389.398438 26.949219 L 389.398438 224.851562 L 206.488281 224.851562 Z M 206.488281 26.949219 " clip-rule="nonzero"/></clipPath><clipPath id="7c27adb392"><path d="M 519.570312 26.949219 L 702.480469 26.949219 L 702.480469 224.851562 L 519.570312 224.851562 Z M 519.570312 26.949219 " clip-rule="nonzero"/></clipPath><clipPath id="b5b3566a89"><path d="M 0.804688 0.949219 L 183.480469 0.949219 L 183.480469 198.851562 L 0.804688 198.851562 Z M 0.804688 0.949219 " clip-rule="nonzero"/></clipPath><clipPath id="777bf50468"><rect x="0" width="184" y="0" height="199"/></clipPath><clipPath id="99b6c92e54"><path d="M 420.773438 27 L 488.242188 27 L 488.242188 224.851562 L 420.773438 224.851562 Z M 420.773438 27 " clip-rule="nonzero"/></clipPath></defs><g fill="#000000" fill-opacity="1"><g transform="translate(363.738959, 203.299469)"><g/></g></g><g fill="#ffffff" fill-opacity="1"><g transform="translate(12.078058, 440.933825)"><g><path d="M 74.328125 -85.5 C 66.890625 -85.5 60.488281 -82.742188 55.125 -77.234375 C 49.769531 -71.722656 47.09375 -65.101562 47.09375 -57.375 C 47.09375 -49.476562 49.769531 -42.773438 55.125 -37.265625 C 60.488281 -31.765625 66.890625 -29.015625 74.328125 -29.015625 C 77.898438 -29.015625 81.285156 -29.460938 84.484375 -30.359375 C 87.679688 -31.253906 90.023438 -32.144531 91.515625 -33.03125 L 93.53125 -34.375 L 106.921875 -6.921875 C 105.878906 -6.171875 104.425781 -5.238281 102.5625 -4.125 C 100.707031 -3.007812 96.46875 -1.488281 89.84375 0.4375 C 83.21875 2.375 76.113281 3.34375 68.53125 3.34375 C 51.707031 3.34375 36.9375 -2.566406 24.21875 -14.390625 C 11.5 -26.222656 5.140625 -40.398438 5.140625 -56.921875 C 5.140625 -73.585938 11.5 -87.910156 24.21875 -99.890625 C 36.9375 -111.867188 51.707031 -117.859375 68.53125 -117.859375 C 76.113281 -117.859375 83.101562 -116.960938 89.5 -115.171875 C 95.90625 -113.390625 100.445312 -111.609375 103.125 -109.828125 L 106.921875 -107.140625 L 93.53125 -80.140625 C 88.613281 -83.710938 82.210938 -85.5 74.328125 -85.5 Z M 74.328125 -85.5 "/></g></g></g><g fill="#ffffff" fill-opacity="1"><g transform="translate(121.674675, 440.933825)"><g><path d="M 24.21875 -13.609375 C 11.5 -24.921875 5.140625 -39.429688 5.140625 -57.140625 C 5.140625 -74.847656 11.757812 -89.394531 25 -100.78125 C 38.238281 -112.164062 54.609375 -117.859375 74.109375 -117.859375 C 93.304688 -117.859375 109.488281 -112.128906 122.65625 -100.671875 C 135.820312 -89.210938 142.40625 -74.703125 142.40625 -57.140625 C 142.40625 -39.578125 135.96875 -25.101562 123.09375 -13.71875 C 110.226562 -2.34375 93.898438 3.34375 74.109375 3.34375 C 53.566406 3.34375 36.9375 -2.304688 24.21875 -13.609375 Z M 54.796875 -76.5625 C 49.660156 -71.5 47.09375 -65.023438 47.09375 -57.140625 C 47.09375 -49.253906 49.546875 -42.816406 54.453125 -37.828125 C 59.367188 -32.847656 65.847656 -30.359375 73.890625 -30.359375 C 81.628906 -30.359375 87.988281 -32.882812 92.96875 -37.9375 C 97.957031 -43 100.453125 -49.398438 100.453125 -57.140625 C 100.453125 -65.023438 97.882812 -71.5 92.75 -76.5625 C 87.613281 -81.625 81.328125 -84.15625 73.890625 -84.15625 C 66.296875 -84.15625 59.929688 -81.625 54.796875 -76.5625 Z M 54.796875 -76.5625 "/></g></g></g><g fill="#ffffff" fill-opacity="1"><g transform="translate(269.217139, 440.933825)"><g><path d="M 21.203125 -14.171875 C 10.492188 -25.859375 5.140625 -40.179688 5.140625 -57.140625 C 5.140625 -74.109375 10.492188 -88.46875 21.203125 -100.21875 C 31.921875 -111.976562 45.539062 -117.859375 62.0625 -117.859375 C 77.238281 -117.859375 89.738281 -113.097656 99.5625 -103.578125 L 99.5625 -191.96875 L 139.0625 -191.96875 L 139.0625 0 L 100 0 L 100 -12.953125 L 99.5625 -12.953125 C 89.738281 -2.085938 77.238281 3.34375 62.0625 3.34375 C 45.539062 3.34375 31.921875 -2.492188 21.203125 -14.171875 Z M 54.796875 -76.5625 C 49.660156 -71.5 47.09375 -65.023438 47.09375 -57.140625 C 47.09375 -49.253906 49.546875 -42.816406 54.453125 -37.828125 C 59.367188 -32.847656 65.847656 -30.359375 73.890625 -30.359375 C 81.628906 -30.359375 87.988281 -32.882812 92.96875 -37.9375 C 97.957031 -43 100.453125 -49.398438 100.453125 -57.140625 C 100.453125 -65.023438 97.882812 -71.5 92.75 -76.5625 C 87.613281 -81.625 81.328125 -84.15625 73.890625 -84.15625 C 66.296875 -84.15625 59.929688 -81.625 54.796875 -76.5625 Z M 54.796875 -76.5625 "/></g></g></g><g fill="#ffffff" fill-opacity="1"><g transform="translate(421.670239, 440.933825)"><g><path d="M 17.1875 -178.34375 C 21.800781 -182.957031 27.304688 -185.265625 33.703125 -185.265625 C 40.097656 -185.265625 45.601562 -182.957031 50.21875 -178.34375 C 54.832031 -173.738281 57.140625 -168.234375 57.140625 -161.828125 C 57.140625 -155.429688 54.832031 -149.925781 50.21875 -145.3125 C 45.601562 -140.695312 40.097656 -138.390625 33.703125 -138.390625 C 27.304688 -138.390625 21.800781 -140.695312 17.1875 -145.3125 C 12.570312 -149.925781 10.265625 -155.429688 10.265625 -161.828125 C 10.265625 -168.234375 12.570312 -173.738281 17.1875 -178.34375 Z M 13.390625 -114.515625 L 13.390625 0 L 52.90625 0 L 52.90625 -114.515625 Z M 13.390625 -114.515625 "/></g></g></g><g fill="#ffffff" fill-opacity="1"><g transform="translate(489.079985, 440.933825)"><g><path d="M 144.203125 -114.515625 L 89.734375 -59.828125 L 149.5625 0 L 98.65625 0 L 52.90625 -45.765625 L 52.90625 0 L 13.390625 0 L 13.390625 -191.96875 L 52.90625 -191.96875 L 52.90625 -74.5625 L 92.859375 -114.515625 Z M 144.203125 -114.515625 "/></g></g></g><g fill="#ffffff" fill-opacity="1"><g transform="translate(627.694046, 440.933825)"><g><path d="M 21.203125 -14.171875 C 10.492188 -25.859375 5.140625 -40.179688 5.140625 -57.140625 C 5.140625 -74.109375 10.492188 -88.46875 21.203125 -100.21875 C 31.921875 -111.976562 45.539062 -117.859375 62.0625 -117.859375 C 77.238281 -117.859375 89.738281 -113.097656 99.5625 -103.578125 L 99.5625 -114.515625 L 139.0625 -114.515625 L 139.0625 0 L 100 0 L 100 -12.953125 L 99.5625 -12.953125 C 89.738281 -2.085938 77.238281 3.34375 62.0625 3.34375 C 45.539062 3.34375 31.921875 -2.492188 21.203125 -14.171875 Z M 54.796875 -76.5625 C 49.660156 -71.5 47.09375 -65.023438 47.09375 -57.140625 C 47.09375 -49.253906 49.546875 -42.816406 54.453125 -37.828125 C 59.367188 -32.847656 65.847656 -30.359375 73.890625 -30.359375 C 81.628906 -30.359375 87.988281 -32.882812 92.96875 -37.9375 C 97.957031 -43 100.453125 -49.398438 100.453125 -57.140625 C 100.453125 -65.023438 97.882812 -71.5 92.75 -76.5625 C 87.613281 -81.625 81.328125 -84.15625 73.890625 -84.15625 C 66.296875 -84.15625 59.929688 -81.625 54.796875 -76.5625 Z M 54.796875 -76.5625 "/></g></g></g><g fill="#ffffff" fill-opacity="1"><g transform="translate(780.147123, 440.933825)"><g><path d="M 13.390625 0 L 13.390625 -191.96875 L 52.90625 -191.96875 L 52.90625 0 Z M 13.390625 0 "/></g></g></g><g clip-path="url(#f2bec1ed05)"><path fill="#ff9e45" d="M 206.667969 148.046875 L 206.667969 103.234375 C 251.546875 93.953125 340.75 58.894531 389.214844 26.949219 L 389.214844 79.015625 C 366.539062 94.46875 318.589844 115.0625 284.550781 125.382812 C 317.554688 134.144531 366.019531 157.328125 389.214844 172.265625 L 389.214844 224.851562 C 340.75 195.453125 255.132812 159.921875 206.667969 148.046875 Z M 206.667969 148.046875 " fill-opacity="1" fill-rule="nonzero"/></g><g clip-path="url(#7c27adb392)"><g transform="matrix(1, 0, 0, 1, 519, 26)"><g clip-path="url(#777bf50468)"><g clip-path="url(#b5b3566a89)"><path fill="#ff9e45" d="M 183.535156 122.046875 L 183.535156 77.234375 C 138.652344 67.953125 49.453125 32.894531 0.988281 0.949219 L 0.988281 53.015625 C 23.664062 68.46875 71.613281 89.0625 105.652344 99.382812 C 72.648438 108.144531 24.183594 131.328125 0.988281 146.265625 L 0.988281 198.851562 C 49.453125 169.453125 135.070312 133.921875 183.535156 122.046875 Z M 183.535156 122.046875 " fill-opacity="1" fill-rule="nonzero"/></g></g></g></g><g clip-path="url(#99b6c92e54)"><path fill="#ff9e45" d="M 456.542969 27.140625 L 488.425781 27.140625 L 452.660156 225.019531 L 420.773438 225.019531 Z M 456.542969 27.140625 " fill-opacity="1" fill-rule="nonzero"/></g></svg>