<svg xmlns="http://www.w3.org/2000/svg" xmlns:xlink="http://www.w3.org/1999/xlink" width="2000" zoomAndPan="magnify" viewBox="0 0 1500 1499.999933" height="2000" preserveAspectRatio="xMidYMid meet" version="1.0"><defs><g/><clipPath id="f47add9cfd"><path d="M 306.554688 519.921875 L 1350 519.921875 L 1350 886.167969 L 306.554688 886.167969 Z M 306.554688 519.921875 " clip-rule="nonzero"/></clipPath><clipPath id="c6f0cf963a"><path d="M 0.554688 0.921875 L 1044 0.921875 L 1044 367.167969 L 0.554688 367.167969 Z M 0.554688 0.921875 " clip-rule="nonzero"/></clipPath><clipPath id="234173c5e3"><rect x="0" width="1044" y="0" height="368"/></clipPath><clipPath id="0eedf339bb"><path d="M 260.976562 519.921875 L 978 519.921875 L 978 886.097656 L 260.976562 886.097656 Z M 260.976562 519.921875 " clip-rule="nonzero"/></clipPath><clipPath id="44a577777c"><path d="M 978 574.671875 L 978 831.347656 C 978 861.585938 953.488281 886.097656 923.25 886.097656 L 315.726562 886.097656 C 285.488281 886.097656 260.976562 861.585938 260.976562 831.347656 L 260.976562 574.671875 C 260.976562 544.433594 285.488281 519.921875 315.726562 519.921875 L 923.25 519.921875 C 953.488281 519.921875 978 544.433594 978 574.671875 Z M 978 574.671875 " clip-rule="nonzero"/></clipPath><clipPath id="bc75dd6e35"><path d="M 0.976562 0.921875 L 718 0.921875 L 718 367.097656 L 0.976562 367.097656 Z M 0.976562 0.921875 " clip-rule="nonzero"/></clipPath><clipPath id="429b43de17"><path d="M 718 55.671875 L 718 312.347656 C 718 342.585938 693.488281 367.097656 663.25 367.097656 L 55.726562 367.097656 C 25.488281 367.097656 0.976562 342.585938 0.976562 312.347656 L 0.976562 55.671875 C 0.976562 25.433594 25.488281 0.921875 55.726562 0.921875 L 663.25 0.921875 C 693.488281 0.921875 718 25.433594 718 55.671875 Z M 718 55.671875 " clip-rule="nonzero"/></clipPath><clipPath id="8193cf18d9"><rect x="0" width="718" y="0" height="368"/></clipPath></defs><rect x="-150" width="1800" fill="#ffffff" y="-149.999993" height="1799.99992" fill-opacity="1"/><rect x="-150" width="1800" fill="#ffffff" y="-149.999993" height="1799.99992" fill-opacity="1"/><g clip-path="url(#f47add9cfd)"><g transform="matrix(1, 0, 0, 1, 306, 519)"><g clip-path="url(#234173c5e3)"><g clip-path="url(#c6f0cf963a)"><path fill="#ffffff" d="M 0.554688 0.921875 L 1043.5 0.921875 L 1043.5 367.167969 L 0.554688 367.167969 Z M 0.554688 0.921875 " fill-opacity="1" fill-rule="nonzero"/></g></g></g></g><g clip-path="url(#0eedf339bb)"><g clip-path="url(#44a577777c)"><g transform="matrix(1, 0, 0, 1, 260, 519)"><g clip-path="url(#8193cf18d9)"><g clip-path="url(#bc75dd6e35)"><g clip-path="url(#429b43de17)"><path fill="#334155" d="M 0.976562 0.921875 L 717.59375 0.921875 L 717.59375 367.097656 L 0.976562 367.097656 Z M 0.976562 0.921875 " fill-opacity="1" fill-rule="nonzero"/></g></g></g></g></g></g><g fill="#ffffff" fill-opacity="1"><g transform="translate(257.975462, 863.542934)"><g><path d="M 187.75 5.390625 C 155.707031 5.390625 126.734375 -1.570312 100.828125 -15.5 C 74.929688 -29.425781 54.570312 -48.738281 39.75 -73.4375 C 24.925781 -98.144531 17.515625 -126.066406 17.515625 -157.203125 C 17.515625 -188.347656 24.925781 -216.269531 39.75 -240.96875 C 54.570312 -265.675781 74.929688 -284.992188 100.828125 -298.921875 C 126.734375 -312.847656 155.859375 -319.8125 188.203125 -319.8125 C 215.453125 -319.8125 240.082031 -315.019531 262.09375 -305.4375 C 284.101562 -295.851562 302.59375 -282.078125 317.5625 -264.109375 L 270.84375 -221 C 249.582031 -245.550781 223.234375 -257.828125 191.796875 -257.828125 C 172.328125 -257.828125 154.957031 -253.554688 139.6875 -245.015625 C 124.414062 -236.484375 112.515625 -224.582031 103.984375 -209.3125 C 95.453125 -194.039062 91.1875 -176.671875 91.1875 -157.203125 C 91.1875 -137.742188 95.453125 -120.378906 103.984375 -105.109375 C 112.515625 -89.835938 124.414062 -77.929688 139.6875 -69.390625 C 154.957031 -60.859375 172.328125 -56.59375 191.796875 -56.59375 C 223.234375 -56.59375 249.582031 -69.019531 270.84375 -93.875 L 317.5625 -50.75 C 302.59375 -32.488281 284.023438 -18.566406 261.859375 -8.984375 C 239.703125 0.597656 215 5.390625 187.75 5.390625 Z M 187.75 5.390625 "/></g></g></g><g fill="#334155" fill-opacity="1"><g transform="translate(994.346906, 866.785225)"><g><path d="M 4.640625 -39.203125 L 13.71875 -39.203125 L 13.71875 0 L 4.640625 0 Z M 4.640625 -39.203125 "/></g></g></g><g fill="#334155" fill-opacity="1"><g transform="translate(1012.712338, 866.785225)"><g><path d="M 22.34375 -30.578125 C 26.070312 -30.578125 29.082031 -29.457031 31.375 -27.21875 C 33.675781 -24.976562 34.828125 -21.65625 34.828125 -17.25 L 34.828125 0 L 26.09375 0 L 26.09375 -15.90625 C 26.09375 -18.289062 25.566406 -20.070312 24.515625 -21.25 C 23.472656 -22.425781 21.960938 -23.015625 19.984375 -23.015625 C 17.785156 -23.015625 16.03125 -22.332031 14.71875 -20.96875 C 13.414062 -19.601562 12.765625 -17.578125 12.765625 -14.890625 L 12.765625 0 L 4.03125 0 L 4.03125 -30.125 L 12.375 -30.125 L 12.375 -26.59375 C 13.53125 -27.863281 14.96875 -28.84375 16.6875 -29.53125 C 18.40625 -30.226562 20.289062 -30.578125 22.34375 -30.578125 Z M 22.34375 -30.578125 "/></g></g></g><g fill="#334155" fill-opacity="1"><g transform="translate(1051.402932, 866.785225)"><g><path d="M 22.34375 -30.578125 C 26.070312 -30.578125 29.082031 -29.457031 31.375 -27.21875 C 33.675781 -24.976562 34.828125 -21.65625 34.828125 -17.25 L 34.828125 0 L 26.09375 0 L 26.09375 -15.90625 C 26.09375 -18.289062 25.566406 -20.070312 24.515625 -21.25 C 23.472656 -22.425781 21.960938 -23.015625 19.984375 -23.015625 C 17.785156 -23.015625 16.03125 -22.332031 14.71875 -20.96875 C 13.414062 -19.601562 12.765625 -17.578125 12.765625 -14.890625 L 12.765625 0 L 4.03125 0 L 4.03125 -30.125 L 12.375 -30.125 L 12.375 -26.59375 C 13.53125 -27.863281 14.96875 -28.84375 16.6875 -29.53125 C 18.40625 -30.226562 20.289062 -30.578125 22.34375 -30.578125 Z M 22.34375 -30.578125 "/></g></g></g><g fill="#334155" fill-opacity="1"><g transform="translate(1090.093526, 866.785225)"><g><path d="M 18.375 0.453125 C 15.195312 0.453125 12.347656 -0.207031 9.828125 -1.53125 C 7.304688 -2.863281 5.335938 -4.703125 3.921875 -7.046875 C 2.503906 -9.398438 1.796875 -12.070312 1.796875 -15.0625 C 1.796875 -18.050781 2.503906 -20.71875 3.921875 -23.0625 C 5.335938 -25.414062 7.304688 -27.253906 9.828125 -28.578125 C 12.347656 -29.910156 15.195312 -30.578125 18.375 -30.578125 C 21.539062 -30.578125 24.375 -29.910156 26.875 -28.578125 C 29.375 -27.253906 31.332031 -25.414062 32.75 -23.0625 C 34.175781 -20.71875 34.890625 -18.050781 34.890625 -15.0625 C 34.890625 -12.070312 34.175781 -9.398438 32.75 -7.046875 C 31.332031 -4.703125 29.375 -2.863281 26.875 -1.53125 C 24.375 -0.207031 21.539062 0.453125 18.375 0.453125 Z M 18.375 -6.71875 C 20.613281 -6.71875 22.453125 -7.472656 23.890625 -8.984375 C 25.328125 -10.492188 26.046875 -12.519531 26.046875 -15.0625 C 26.046875 -17.601562 25.328125 -19.628906 23.890625 -21.140625 C 22.453125 -22.648438 20.613281 -23.40625 18.375 -23.40625 C 16.132812 -23.40625 14.285156 -22.648438 12.828125 -21.140625 C 11.367188 -19.628906 10.640625 -17.601562 10.640625 -15.0625 C 10.640625 -12.519531 11.367188 -10.492188 12.828125 -8.984375 C 14.285156 -7.472656 16.132812 -6.71875 18.375 -6.71875 Z M 18.375 -6.71875 "/></g></g></g><g fill="#334155" fill-opacity="1"><g transform="translate(1126.768403, 866.785225)"><g><path d="M 33.9375 -30.125 L 21.21875 0 L 12.203125 0 L -0.453125 -30.125 L 8.5625 -30.125 L 16.90625 -9.625 L 25.53125 -30.125 Z M 33.9375 -30.125 "/></g></g></g><g fill="#334155" fill-opacity="1"><g transform="translate(1160.25173, 866.785225)"><g><path d="M 16.1875 -30.578125 C 20.851562 -30.578125 24.4375 -29.460938 26.9375 -27.234375 C 29.4375 -25.015625 30.6875 -21.664062 30.6875 -17.1875 L 30.6875 0 L 22.515625 0 L 22.515625 -3.75 C 20.867188 -0.945312 17.804688 0.453125 13.328125 0.453125 C 11.015625 0.453125 9.007812 0.0625 7.3125 -0.71875 C 5.613281 -1.507812 4.316406 -2.59375 3.421875 -3.96875 C 2.523438 -5.351562 2.078125 -6.925781 2.078125 -8.6875 C 2.078125 -11.476562 3.128906 -13.675781 5.234375 -15.28125 C 7.347656 -16.894531 10.609375 -17.703125 15.015625 -17.703125 L 21.953125 -17.703125 C 21.953125 -19.597656 21.375 -21.054688 20.21875 -22.078125 C 19.0625 -23.109375 17.328125 -23.625 15.015625 -23.625 C 13.398438 -23.625 11.816406 -23.375 10.265625 -22.875 C 8.722656 -22.375 7.410156 -21.691406 6.328125 -20.828125 L 3.1875 -26.9375 C 4.832031 -28.09375 6.800781 -28.988281 9.09375 -29.625 C 11.394531 -30.257812 13.757812 -30.578125 16.1875 -30.578125 Z M 15.515625 -5.4375 C 17.003906 -5.4375 18.328125 -5.78125 19.484375 -6.46875 C 20.640625 -7.15625 21.460938 -8.171875 21.953125 -9.515625 L 21.953125 -12.59375 L 15.953125 -12.59375 C 12.367188 -12.59375 10.578125 -11.421875 10.578125 -9.078125 C 10.578125 -7.953125 11.015625 -7.0625 11.890625 -6.40625 C 12.773438 -5.757812 13.984375 -5.4375 15.515625 -5.4375 Z M 15.515625 -5.4375 "/></g></g></g><g fill="#334155" fill-opacity="1"><g transform="translate(1194.7989, 866.785225)"><g><path d="M 23.46875 -1.453125 C 22.601562 -0.816406 21.546875 -0.335938 20.296875 -0.015625 C 19.046875 0.296875 17.734375 0.453125 16.359375 0.453125 C 12.765625 0.453125 9.988281 -0.460938 8.03125 -2.296875 C 6.070312 -4.128906 5.09375 -6.816406 5.09375 -10.359375 L 5.09375 -22.734375 L 0.453125 -22.734375 L 0.453125 -29.453125 L 5.09375 -29.453125 L 5.09375 -36.796875 L 13.828125 -36.796875 L 13.828125 -29.453125 L 21.34375 -29.453125 L 21.34375 -22.734375 L 13.828125 -22.734375 L 13.828125 -10.46875 C 13.828125 -9.195312 14.15625 -8.21875 14.8125 -7.53125 C 15.46875 -6.84375 16.390625 -6.5 17.578125 -6.5 C 18.960938 -6.5 20.140625 -6.867188 21.109375 -7.609375 Z M 23.46875 -1.453125 "/></g></g></g><g fill="#334155" fill-opacity="1"><g transform="translate(1219.155496, 866.785225)"><g><path d="M 4.03125 -30.125 L 12.765625 -30.125 L 12.765625 0 L 4.03125 0 Z M 8.40625 -34.328125 C 6.800781 -34.328125 5.492188 -34.789062 4.484375 -35.71875 C 3.472656 -36.65625 2.96875 -37.816406 2.96875 -39.203125 C 2.96875 -40.578125 3.472656 -41.734375 4.484375 -42.671875 C 5.492188 -43.609375 6.800781 -44.078125 8.40625 -44.078125 C 10.007812 -44.078125 11.3125 -43.628906 12.3125 -42.734375 C 13.320312 -41.835938 13.828125 -40.71875 13.828125 -39.375 C 13.828125 -37.914062 13.320312 -36.707031 12.3125 -35.75 C 11.3125 -34.800781 10.007812 -34.328125 8.40625 -34.328125 Z M 8.40625 -34.328125 "/></g></g></g><g fill="#334155" fill-opacity="1"><g transform="translate(1236.009163, 866.785225)"><g><path d="M 18.375 0.453125 C 15.195312 0.453125 12.347656 -0.207031 9.828125 -1.53125 C 7.304688 -2.863281 5.335938 -4.703125 3.921875 -7.046875 C 2.503906 -9.398438 1.796875 -12.070312 1.796875 -15.0625 C 1.796875 -18.050781 2.503906 -20.71875 3.921875 -23.0625 C 5.335938 -25.414062 7.304688 -27.253906 9.828125 -28.578125 C 12.347656 -29.910156 15.195312 -30.578125 18.375 -30.578125 C 21.539062 -30.578125 24.375 -29.910156 26.875 -28.578125 C 29.375 -27.253906 31.332031 -25.414062 32.75 -23.0625 C 34.175781 -20.71875 34.890625 -18.050781 34.890625 -15.0625 C 34.890625 -12.070312 34.175781 -9.398438 32.75 -7.046875 C 31.332031 -4.703125 29.375 -2.863281 26.875 -1.53125 C 24.375 -0.207031 21.539062 0.453125 18.375 0.453125 Z M 18.375 -6.71875 C 20.613281 -6.71875 22.453125 -7.472656 23.890625 -8.984375 C 25.328125 -10.492188 26.046875 -12.519531 26.046875 -15.0625 C 26.046875 -17.601562 25.328125 -19.628906 23.890625 -21.140625 C 22.453125 -22.648438 20.613281 -23.40625 18.375 -23.40625 C 16.132812 -23.40625 14.285156 -22.648438 12.828125 -21.140625 C 11.367188 -19.628906 10.640625 -17.601562 10.640625 -15.0625 C 10.640625 -12.519531 11.367188 -10.492188 12.828125 -8.984375 C 14.285156 -7.472656 16.132812 -6.71875 18.375 -6.71875 Z M 18.375 -6.71875 "/></g></g></g><g fill="#334155" fill-opacity="1"><g transform="translate(1272.684041, 866.785225)"><g><path d="M 22.34375 -30.578125 C 26.070312 -30.578125 29.082031 -29.457031 31.375 -27.21875 C 33.675781 -24.976562 34.828125 -21.65625 34.828125 -17.25 L 34.828125 0 L 26.09375 0 L 26.09375 -15.90625 C 26.09375 -18.289062 25.566406 -20.070312 24.515625 -21.25 C 23.472656 -22.425781 21.960938 -23.015625 19.984375 -23.015625 C 17.785156 -23.015625 16.03125 -22.332031 14.71875 -20.96875 C 13.414062 -19.601562 12.765625 -17.578125 12.765625 -14.890625 L 12.765625 0 L 4.03125 0 L 4.03125 -30.125 L 12.375 -30.125 L 12.375 -26.59375 C 13.53125 -27.863281 14.96875 -28.84375 16.6875 -29.53125 C 18.40625 -30.226562 20.289062 -30.578125 22.34375 -30.578125 Z M 22.34375 -30.578125 "/></g></g></g><g fill="#334155" fill-opacity="1"><g transform="translate(1311.374635, 866.785225)"><g><path d="M 14.171875 0.453125 C 11.671875 0.453125 9.222656 0.144531 6.828125 -0.46875 C 4.441406 -1.09375 2.539062 -1.867188 1.125 -2.796875 L 4.03125 -9.078125 C 5.375 -8.210938 7 -7.507812 8.90625 -6.96875 C 10.8125 -6.425781 12.675781 -6.15625 14.5 -6.15625 C 18.195312 -6.15625 20.046875 -7.070312 20.046875 -8.90625 C 20.046875 -9.757812 19.539062 -10.375 18.53125 -10.75 C 17.53125 -11.125 15.984375 -11.441406 13.890625 -11.703125 C 11.421875 -12.078125 9.382812 -12.503906 7.78125 -12.984375 C 6.175781 -13.472656 4.785156 -14.332031 3.609375 -15.5625 C 2.429688 -16.800781 1.84375 -18.554688 1.84375 -20.828125 C 1.84375 -22.734375 2.394531 -24.421875 3.5 -25.890625 C 4.601562 -27.367188 6.207031 -28.519531 8.3125 -29.34375 C 10.425781 -30.164062 12.921875 -30.578125 15.796875 -30.578125 C 17.921875 -30.578125 20.035156 -30.34375 22.140625 -29.875 C 24.253906 -29.40625 26.003906 -28.757812 27.390625 -27.9375 L 24.46875 -21.734375 C 21.820312 -23.222656 18.929688 -23.96875 15.796875 -23.96875 C 13.921875 -23.96875 12.515625 -23.707031 11.578125 -23.1875 C 10.648438 -22.664062 10.1875 -21.992188 10.1875 -21.171875 C 10.1875 -20.234375 10.691406 -19.578125 11.703125 -19.203125 C 12.710938 -18.828125 14.316406 -18.472656 16.515625 -18.140625 C 18.984375 -17.734375 21 -17.296875 22.5625 -16.828125 C 24.132812 -16.359375 25.5 -15.507812 26.65625 -14.28125 C 27.8125 -13.050781 28.390625 -11.332031 28.390625 -9.125 C 28.390625 -7.257812 27.828125 -5.597656 26.703125 -4.140625 C 25.585938 -2.679688 23.957031 -1.550781 21.8125 -0.75 C 19.664062 0.0507812 17.117188 0.453125 14.171875 0.453125 Z M 14.171875 0.453125 "/></g></g></g><g fill="#ffffff" fill-opacity="1"><g transform="translate(547.476538, 787.042928)"><g><path d="M 99.171875 2.8125 C 82.097656 2.8125 66.707031 -0.863281 53 -8.21875 C 39.289062 -15.582031 28.554688 -25.726562 20.796875 -38.65625 C 13.046875 -51.582031 9.171875 -66.113281 9.171875 -82.25 C 9.171875 -98.382812 13.046875 -112.914062 20.796875 -125.84375 C 28.554688 -138.769531 39.289062 -148.910156 53 -156.265625 C 66.707031 -163.628906 82.097656 -167.3125 99.171875 -167.3125 C 116.242188 -167.3125 131.59375 -163.628906 145.21875 -156.265625 C 158.851562 -148.910156 169.585938 -138.769531 177.421875 -125.84375 C 185.253906 -112.914062 189.171875 -98.382812 189.171875 -82.25 C 189.171875 -66.113281 185.253906 -51.582031 177.421875 -38.65625 C 169.585938 -25.726562 158.851562 -15.582031 145.21875 -8.21875 C 131.59375 -0.863281 116.242188 2.8125 99.171875 2.8125 Z M 99.171875 -29.609375 C 108.878906 -29.609375 117.648438 -31.835938 125.484375 -36.296875 C 133.316406 -40.765625 139.46875 -46.992188 143.9375 -54.984375 C 148.40625 -62.972656 150.640625 -72.0625 150.640625 -82.25 C 150.640625 -92.4375 148.40625 -101.523438 143.9375 -109.515625 C 139.46875 -117.503906 133.316406 -123.726562 125.484375 -128.1875 C 117.648438 -132.65625 108.878906 -134.890625 99.171875 -134.890625 C 89.453125 -134.890625 80.675781 -132.65625 72.84375 -128.1875 C 65.007812 -123.726562 58.859375 -117.503906 54.390625 -109.515625 C 49.929688 -101.523438 47.703125 -92.4375 47.703125 -82.25 C 47.703125 -72.0625 49.929688 -62.972656 54.390625 -54.984375 C 58.859375 -46.992188 65.007812 -40.765625 72.84375 -36.296875 C 80.675781 -31.835938 89.453125 -29.609375 99.171875 -29.609375 Z M 99.171875 -29.609375 "/></g></g></g><g fill="#ffffff" fill-opacity="1"><g transform="translate(745.814096, 787.042928)"><g><path d="M 145.703125 -174.375 L 145.703125 0 L 110.6875 0 L 110.6875 -14.5625 C 101.601562 -3.601562 88.441406 1.875 71.203125 1.875 C 59.296875 1.875 48.523438 -0.785156 38.890625 -6.109375 C 29.253906 -11.429688 21.691406 -19.023438 16.203125 -28.890625 C 10.722656 -38.765625 7.984375 -50.207031 7.984375 -63.21875 C 7.984375 -76.21875 10.722656 -87.648438 16.203125 -97.515625 C 21.691406 -107.390625 29.253906 -114.988281 38.890625 -120.3125 C 48.523438 -125.644531 59.296875 -128.3125 71.203125 -128.3125 C 87.335938 -128.3125 99.953125 -123.21875 109.046875 -113.03125 L 109.046875 -174.375 Z M 77.546875 -28.203125 C 86.796875 -28.203125 94.472656 -31.375 100.578125 -37.71875 C 106.691406 -44.0625 109.75 -52.5625 109.75 -63.21875 C 109.75 -73.863281 106.691406 -82.359375 100.578125 -88.703125 C 94.472656 -95.054688 86.796875 -98.234375 77.546875 -98.234375 C 68.148438 -98.234375 60.394531 -95.054688 54.28125 -88.703125 C 48.175781 -82.359375 45.125 -73.863281 45.125 -63.21875 C 45.125 -52.5625 48.175781 -44.0625 54.28125 -37.71875 C 60.394531 -31.375 68.148438 -28.203125 77.546875 -28.203125 Z M 77.546875 -28.203125 "/></g></g></g><g fill="#ffffff" fill-opacity="1"><g transform="translate(908.432037, 787.042928)"><g><path d="M 16.921875 -126.4375 L 53.578125 -126.4375 L 53.578125 0 L 16.921875 0 Z M 35.25 -144.0625 C 28.507812 -144.0625 23.023438 -146.019531 18.796875 -149.9375 C 14.566406 -153.851562 12.453125 -158.707031 12.453125 -164.5 C 12.453125 -170.289062 14.566406 -175.144531 18.796875 -179.0625 C 23.023438 -182.976562 28.507812 -184.9375 35.25 -184.9375 C 41.988281 -184.9375 47.472656 -183.054688 51.703125 -179.296875 C 55.929688 -175.546875 58.046875 -170.847656 58.046875 -165.203125 C 58.046875 -159.097656 55.929688 -154.046875 51.703125 -150.046875 C 47.472656 -146.054688 41.988281 -144.0625 35.25 -144.0625 Z M 35.25 -144.0625 "/></g></g></g><g fill="#334155" fill-opacity="1"><g transform="translate(979.171814, 787.042928)"><g><path d="M 71.203125 -49.578125 L 53.578125 -32.1875 L 53.578125 0 L 16.921875 0 L 16.921875 -174.375 L 53.578125 -174.375 L 53.578125 -75.671875 L 107.15625 -126.4375 L 150.875 -126.4375 L 98.234375 -72.84375 L 155.5625 0 L 111.15625 0 Z M 71.203125 -49.578125 "/></g></g></g><g fill="#334155" fill-opacity="1"><g transform="translate(1134.26988, 787.042928)"><g><path d="M 67.921875 -128.3125 C 87.503906 -128.3125 102.539062 -123.648438 113.03125 -114.328125 C 123.53125 -105.003906 128.78125 -90.941406 128.78125 -72.140625 L 128.78125 0 L 94.46875 0 L 94.46875 -15.75 C 87.570312 -4 74.726562 1.875 55.9375 1.875 C 46.21875 1.875 37.789062 0.234375 30.65625 -3.046875 C 23.53125 -6.335938 18.085938 -10.878906 14.328125 -16.671875 C 10.566406 -22.472656 8.6875 -29.054688 8.6875 -36.421875 C 8.6875 -48.171875 13.113281 -57.414062 21.96875 -64.15625 C 30.820312 -70.894531 44.492188 -74.265625 62.984375 -74.265625 L 92.125 -74.265625 C 92.125 -82.253906 89.691406 -88.398438 84.828125 -92.703125 C 79.972656 -97.015625 72.691406 -99.171875 62.984375 -99.171875 C 56.242188 -99.171875 49.625 -98.113281 43.125 -96 C 36.625 -93.882812 31.101562 -91.023438 26.5625 -87.421875 L 13.390625 -113.03125 C 20.285156 -117.882812 28.550781 -121.644531 38.1875 -124.3125 C 47.820312 -126.976562 57.734375 -128.3125 67.921875 -128.3125 Z M 65.09375 -22.796875 C 71.363281 -22.796875 76.925781 -24.242188 81.78125 -27.140625 C 86.632812 -30.035156 90.082031 -34.304688 92.125 -39.953125 L 92.125 -52.875 L 66.96875 -52.875 C 51.9375 -52.875 44.421875 -47.9375 44.421875 -38.0625 C 44.421875 -33.363281 46.257812 -29.644531 49.9375 -26.90625 C 53.613281 -24.164062 58.664062 -22.796875 65.09375 -22.796875 Z M 65.09375 -22.796875 "/></g></g></g><g fill="#334155" fill-opacity="1"><g transform="translate(1279.263063, 787.042928)"><g><path d="M 16.921875 -174.375 L 53.578125 -174.375 L 53.578125 0 L 16.921875 0 Z M 16.921875 -174.375 "/></g></g></g></svg>