<svg xmlns="http://www.w3.org/2000/svg" xmlns:xlink="http://www.w3.org/1999/xlink" width="2000" zoomAndPan="magnify" viewBox="0 0 1500 599.999999" height="800" preserveAspectRatio="xMidYMid meet" version="1.0"><defs><g/><clipPath id="ae602a7ebf"><path d="M 424.320312 142.265625 L 1500 142.265625 L 1500 453.953125 L 424.320312 453.953125 Z M 424.320312 142.265625 " clip-rule="nonzero"/></clipPath><clipPath id="28719684d4"><path d="M 0.320312 0.265625 L 1076 0.265625 L 1076 311.953125 L 0.320312 311.953125 Z M 0.320312 0.265625 " clip-rule="nonzero"/></clipPath><clipPath id="54d96c4919"><rect x="0" width="1076" y="0" height="312"/></clipPath><clipPath id="cc8c4b36fc"><path d="M 0 0 L 994.304688 0 L 994.304688 600 L 0 600 Z M 0 0 " clip-rule="nonzero"/></clipPath><clipPath id="5ab6428fad"><path d="M 994.171875 29.34375 L 994.171875 582.539062 C 994.171875 598.742188 981.035156 611.878906 964.832031 611.878906 L 29.34375 611.878906 C 13.136719 611.878906 0 598.742188 0 582.539062 L 0 29.34375 C 0 13.136719 13.136719 0 29.34375 0 L 964.832031 0 C 981.035156 0 994.171875 13.136719 994.171875 29.34375 Z M 994.171875 29.34375 " clip-rule="nonzero"/></clipPath><clipPath id="53135744ab"><path d="M 0 0 L 994.304688 0 L 994.304688 600 L 0 600 Z M 0 0 " clip-rule="nonzero"/></clipPath><clipPath id="c9d75e38e4"><path d="M 994.171875 29.34375 L 994.171875 582.539062 C 994.171875 598.742188 981.035156 611.878906 964.832031 611.878906 L 29.34375 611.878906 C 13.136719 611.878906 0 598.742188 0 582.539062 L 0 29.34375 C 0 13.136719 13.136719 0 29.34375 0 L 964.832031 0 C 981.035156 0 994.171875 13.136719 994.171875 29.34375 Z M 994.171875 29.34375 " clip-rule="nonzero"/></clipPath><clipPath id="3c80d4c4f9"><rect x="0" width="995" y="0" height="600"/></clipPath><clipPath id="2c2486ff36"><rect x="0" width="547" y="0" height="600"/></clipPath><clipPath id="53460b7a93"><rect x="0" width="470" y="0" height="94"/></clipPath><clipPath id="f029fd3f6f"><rect x="0" width="1054" y="0" height="378"/></clipPath></defs><rect x="-150" width="1800" fill="#ffffff" y="-60" height="719.999999" fill-opacity="1"/><rect x="-150" width="1800" fill="#ffffff" y="-60" height="719.999999" fill-opacity="1"/><g clip-path="url(#ae602a7ebf)"><g transform="matrix(1, 0, 0, 1, 424, 142)"><g clip-path="url(#54d96c4919)"><g clip-path="url(#28719684d4)"><path fill="#ffffff" d="M 0.320312 0.265625 L 1075.402344 0.265625 L 1075.402344 311.953125 L 0.320312 311.953125 Z M 0.320312 0.265625 " fill-opacity="1" fill-rule="nonzero"/></g></g></g></g><g clip-path="url(#cc8c4b36fc)"><g clip-path="url(#5ab6428fad)"><g transform="matrix(1, 0, 0, 1, 0, -0.000000000000034788)"><g clip-path="url(#3c80d4c4f9)"><g clip-path="url(#53135744ab)"><g clip-path="url(#c9d75e38e4)"><path fill="#334155" d="M 0 0 L 994.304688 0 L 994.304688 611.878906 L 0 611.878906 Z M 0 0 " fill-opacity="1" fill-rule="nonzero"/></g></g></g></g></g></g><g transform="matrix(1, 0, 0, 1, 5, -0.000000000000034788)"><g clip-path="url(#2c2486ff36)"><g fill="#ffffff" fill-opacity="1"><g transform="translate(5.359745, 551.331294)"><g><path d="M 304.96875 8.75 C 252.925781 8.75 205.867188 -2.554688 163.796875 -25.171875 C 121.722656 -47.785156 88.644531 -79.15625 64.5625 -119.28125 C 40.488281 -159.414062 28.453125 -204.773438 28.453125 -255.359375 C 28.453125 -305.941406 40.488281 -351.296875 64.5625 -391.421875 C 88.644531 -431.554688 121.722656 -462.929688 163.796875 -485.546875 C 205.867188 -508.160156 253.171875 -519.46875 305.703125 -519.46875 C 349.960938 -519.46875 389.96875 -511.6875 425.71875 -496.125 C 461.46875 -480.5625 491.503906 -458.1875 515.828125 -429 L 439.9375 -358.953125 C 405.40625 -398.835938 362.601562 -418.78125 311.53125 -418.78125 C 279.914062 -418.78125 251.703125 -411.847656 226.890625 -397.984375 C 202.085938 -384.128906 182.753906 -364.796875 168.890625 -339.984375 C 155.035156 -315.179688 148.109375 -286.972656 148.109375 -255.359375 C 148.109375 -223.742188 155.035156 -195.53125 168.890625 -170.71875 C 182.753906 -145.914062 202.085938 -126.582031 226.890625 -112.71875 C 251.703125 -98.851562 279.914062 -91.921875 311.53125 -91.921875 C 362.601562 -91.921875 405.40625 -112.109375 439.9375 -152.484375 L 515.828125 -82.4375 C 491.503906 -52.769531 461.34375 -30.15625 425.34375 -14.59375 C 389.351562 0.96875 349.226562 8.75 304.96875 8.75 Z M 304.96875 8.75 "/></g></g></g></g></g><g transform="matrix(1, 0, 0, 1, 992, 69)"><g clip-path="url(#53460b7a93)"><g fill="#334155" fill-opacity="1"><g transform="translate(5.898784, 68.939099)"><g><path d="M 6.15625 -51.859375 L 18.15625 -51.859375 L 18.15625 0 L 6.15625 0 Z M 6.15625 -51.859375 "/></g></g></g><g fill="#334155" fill-opacity="1"><g transform="translate(30.195811, 68.939099)"><g><path d="M 29.5625 -40.453125 C 34.5 -40.453125 38.484375 -38.96875 41.515625 -36 C 44.554688 -33.039062 46.078125 -28.644531 46.078125 -22.8125 L 46.078125 0 L 34.515625 0 L 34.515625 -21.03125 C 34.515625 -24.195312 33.820312 -26.554688 32.4375 -28.109375 C 31.0625 -29.671875 29.066406 -30.453125 26.453125 -30.453125 C 23.535156 -30.453125 21.210938 -29.546875 19.484375 -27.734375 C 17.753906 -25.929688 16.890625 -23.253906 16.890625 -19.703125 L 16.890625 0 L 5.328125 0 L 5.328125 -39.859375 L 16.375 -39.859375 L 16.375 -35.1875 C 17.90625 -36.863281 19.804688 -38.160156 22.078125 -39.078125 C 24.347656 -39.992188 26.84375 -40.453125 29.5625 -40.453125 Z M 29.5625 -40.453125 "/></g></g></g><g fill="#334155" fill-opacity="1"><g transform="translate(81.382406, 68.939099)"><g><path d="M 29.5625 -40.453125 C 34.5 -40.453125 38.484375 -38.96875 41.515625 -36 C 44.554688 -33.039062 46.078125 -28.644531 46.078125 -22.8125 L 46.078125 0 L 34.515625 0 L 34.515625 -21.03125 C 34.515625 -24.195312 33.820312 -26.554688 32.4375 -28.109375 C 31.0625 -29.671875 29.066406 -30.453125 26.453125 -30.453125 C 23.535156 -30.453125 21.210938 -29.546875 19.484375 -27.734375 C 17.753906 -25.929688 16.890625 -23.253906 16.890625 -19.703125 L 16.890625 0 L 5.328125 0 L 5.328125 -39.859375 L 16.375 -39.859375 L 16.375 -35.1875 C 17.90625 -36.863281 19.804688 -38.160156 22.078125 -39.078125 C 24.347656 -39.992188 26.84375 -40.453125 29.5625 -40.453125 Z M 29.5625 -40.453125 "/></g></g></g><g fill="#334155" fill-opacity="1"><g transform="translate(132.569001, 68.939099)"><g><path d="M 24.296875 0.59375 C 20.097656 0.59375 16.332031 -0.28125 13 -2.03125 C 9.664062 -3.789062 7.0625 -6.222656 5.1875 -9.328125 C 3.3125 -12.441406 2.375 -15.972656 2.375 -19.921875 C 2.375 -23.878906 3.3125 -27.410156 5.1875 -30.515625 C 7.0625 -33.628906 9.664062 -36.0625 13 -37.8125 C 16.332031 -39.570312 20.097656 -40.453125 24.296875 -40.453125 C 28.492188 -40.453125 32.242188 -39.570312 35.546875 -37.8125 C 38.859375 -36.0625 41.453125 -33.628906 43.328125 -30.515625 C 45.210938 -27.410156 46.15625 -23.878906 46.15625 -19.921875 C 46.15625 -15.972656 45.210938 -12.441406 43.328125 -9.328125 C 41.453125 -6.222656 38.859375 -3.789062 35.546875 -2.03125 C 32.242188 -0.28125 28.492188 0.59375 24.296875 0.59375 Z M 24.296875 -8.890625 C 27.265625 -8.890625 29.695312 -9.890625 31.59375 -11.890625 C 33.5 -13.890625 34.453125 -16.566406 34.453125 -19.921875 C 34.453125 -23.285156 33.5 -25.96875 31.59375 -27.96875 C 29.695312 -29.96875 27.265625 -30.96875 24.296875 -30.96875 C 21.335938 -30.96875 18.894531 -29.96875 16.96875 -27.96875 C 15.039062 -25.96875 14.078125 -23.285156 14.078125 -19.921875 C 14.078125 -16.566406 15.039062 -13.890625 16.96875 -11.890625 C 18.894531 -9.890625 21.335938 -8.890625 24.296875 -8.890625 Z M 24.296875 -8.890625 "/></g></g></g><g fill="#334155" fill-opacity="1"><g transform="translate(181.088924, 68.939099)"><g><path d="M 44.890625 -39.859375 L 28.078125 0 L 16.15625 0 L -0.59375 -39.859375 L 11.328125 -39.859375 L 22.375 -12.734375 L 33.78125 -39.859375 Z M 44.890625 -39.859375 "/></g></g></g><g fill="#334155" fill-opacity="1"><g transform="translate(225.386501, 68.939099)"><g><path d="M 21.40625 -40.453125 C 27.582031 -40.453125 32.320312 -38.976562 35.625 -36.03125 C 38.9375 -33.09375 40.59375 -28.660156 40.59375 -22.734375 L 40.59375 0 L 29.78125 0 L 29.78125 -4.96875 C 27.601562 -1.257812 23.550781 0.59375 17.625 0.59375 C 14.5625 0.59375 11.90625 0.078125 9.65625 -0.953125 C 7.414062 -1.992188 5.703125 -3.425781 4.515625 -5.25 C 3.328125 -7.082031 2.734375 -9.160156 2.734375 -11.484375 C 2.734375 -15.179688 4.128906 -18.09375 6.921875 -20.21875 C 9.710938 -22.34375 14.023438 -23.40625 19.859375 -23.40625 L 29.03125 -23.40625 C 29.03125 -25.925781 28.265625 -27.863281 26.734375 -29.21875 C 25.210938 -30.582031 22.921875 -31.265625 19.859375 -31.265625 C 17.734375 -31.265625 15.644531 -30.929688 13.59375 -30.265625 C 11.539062 -29.597656 9.800781 -28.695312 8.375 -27.5625 L 4.21875 -35.625 C 6.394531 -37.15625 9 -38.34375 12.03125 -39.1875 C 15.070312 -40.03125 18.195312 -40.453125 21.40625 -40.453125 Z M 20.515625 -7.1875 C 22.492188 -7.1875 24.25 -7.640625 25.78125 -8.546875 C 27.3125 -9.460938 28.394531 -10.8125 29.03125 -12.59375 L 29.03125 -16.671875 L 21.109375 -16.671875 C 16.367188 -16.671875 14 -15.113281 14 -12 C 14 -10.519531 14.578125 -9.347656 15.734375 -8.484375 C 16.898438 -7.617188 18.492188 -7.1875 20.515625 -7.1875 Z M 20.515625 -7.1875 "/></g></g></g><g fill="#334155" fill-opacity="1"><g transform="translate(271.091496, 68.939099)"><g><path d="M 31.03125 -1.921875 C 29.894531 -1.085938 28.5 -0.457031 26.84375 -0.03125 C 25.195312 0.382812 23.457031 0.59375 21.625 0.59375 C 16.882812 0.59375 13.21875 -0.613281 10.625 -3.03125 C 8.03125 -5.457031 6.734375 -9.015625 6.734375 -13.703125 L 6.734375 -30.078125 L 0.59375 -30.078125 L 0.59375 -38.96875 L 6.734375 -38.96875 L 6.734375 -48.671875 L 18.296875 -48.671875 L 18.296875 -38.96875 L 28.21875 -38.96875 L 28.21875 -30.078125 L 18.296875 -30.078125 L 18.296875 -13.859375 C 18.296875 -12.171875 18.726562 -10.867188 19.59375 -9.953125 C 20.457031 -9.046875 21.679688 -8.59375 23.265625 -8.59375 C 25.085938 -8.59375 26.640625 -9.085938 27.921875 -10.078125 Z M 31.03125 -1.921875 "/></g></g></g><g fill="#334155" fill-opacity="1"><g transform="translate(303.314594, 68.939099)"><g><path d="M 5.328125 -39.859375 L 16.890625 -39.859375 L 16.890625 0 L 5.328125 0 Z M 11.109375 -45.40625 C 8.984375 -45.40625 7.253906 -46.019531 5.921875 -47.25 C 4.585938 -48.488281 3.921875 -50.023438 3.921875 -51.859375 C 3.921875 -53.679688 4.585938 -55.207031 5.921875 -56.4375 C 7.253906 -57.675781 8.984375 -58.296875 11.109375 -58.296875 C 13.234375 -58.296875 14.960938 -57.703125 16.296875 -56.515625 C 17.628906 -55.335938 18.296875 -53.859375 18.296875 -52.078125 C 18.296875 -50.148438 17.628906 -48.554688 16.296875 -47.296875 C 14.960938 -46.035156 13.234375 -45.40625 11.109375 -45.40625 Z M 11.109375 -45.40625 "/></g></g></g><g fill="#334155" fill-opacity="1"><g transform="translate(325.611547, 68.939099)"><g><path d="M 24.296875 0.59375 C 20.097656 0.59375 16.332031 -0.28125 13 -2.03125 C 9.664062 -3.789062 7.0625 -6.222656 5.1875 -9.328125 C 3.3125 -12.441406 2.375 -15.972656 2.375 -19.921875 C 2.375 -23.878906 3.3125 -27.410156 5.1875 -30.515625 C 7.0625 -33.628906 9.664062 -36.0625 13 -37.8125 C 16.332031 -39.570312 20.097656 -40.453125 24.296875 -40.453125 C 28.492188 -40.453125 32.242188 -39.570312 35.546875 -37.8125 C 38.859375 -36.0625 41.453125 -33.628906 43.328125 -30.515625 C 45.210938 -27.410156 46.15625 -23.878906 46.15625 -19.921875 C 46.15625 -15.972656 45.210938 -12.441406 43.328125 -9.328125 C 41.453125 -6.222656 38.859375 -3.789062 35.546875 -2.03125 C 32.242188 -0.28125 28.492188 0.59375 24.296875 0.59375 Z M 24.296875 -8.890625 C 27.265625 -8.890625 29.695312 -9.890625 31.59375 -11.890625 C 33.5 -13.890625 34.453125 -16.566406 34.453125 -19.921875 C 34.453125 -23.285156 33.5 -25.96875 31.59375 -27.96875 C 29.695312 -29.96875 27.265625 -30.96875 24.296875 -30.96875 C 21.335938 -30.96875 18.894531 -29.96875 16.96875 -27.96875 C 15.039062 -25.96875 14.078125 -23.285156 14.078125 -19.921875 C 14.078125 -16.566406 15.039062 -13.890625 16.96875 -11.890625 C 18.894531 -9.890625 21.335938 -8.890625 24.296875 -8.890625 Z M 24.296875 -8.890625 "/></g></g></g><g fill="#334155" fill-opacity="1"><g transform="translate(374.13147, 68.939099)"><g><path d="M 29.5625 -40.453125 C 34.5 -40.453125 38.484375 -38.96875 41.515625 -36 C 44.554688 -33.039062 46.078125 -28.644531 46.078125 -22.8125 L 46.078125 0 L 34.515625 0 L 34.515625 -21.03125 C 34.515625 -24.195312 33.820312 -26.554688 32.4375 -28.109375 C 31.0625 -29.671875 29.066406 -30.453125 26.453125 -30.453125 C 23.535156 -30.453125 21.210938 -29.546875 19.484375 -27.734375 C 17.753906 -25.929688 16.890625 -23.253906 16.890625 -19.703125 L 16.890625 0 L 5.328125 0 L 5.328125 -39.859375 L 16.375 -39.859375 L 16.375 -35.1875 C 17.90625 -36.863281 19.804688 -38.160156 22.078125 -39.078125 C 24.347656 -39.992188 26.84375 -40.453125 29.5625 -40.453125 Z M 29.5625 -40.453125 "/></g></g></g><g fill="#334155" fill-opacity="1"><g transform="translate(425.318065, 68.939099)"><g><path d="M 18.734375 0.59375 C 15.429688 0.59375 12.195312 0.1875 9.03125 -0.625 C 5.875 -1.445312 3.359375 -2.472656 1.484375 -3.703125 L 5.328125 -12 C 7.109375 -10.863281 9.257812 -9.9375 11.78125 -9.21875 C 14.300781 -8.507812 16.769531 -8.15625 19.1875 -8.15625 C 24.070312 -8.15625 26.515625 -9.363281 26.515625 -11.78125 C 26.515625 -12.914062 25.847656 -13.726562 24.515625 -14.21875 C 23.179688 -14.71875 21.132812 -15.140625 18.375 -15.484375 C 15.113281 -15.972656 12.421875 -16.539062 10.296875 -17.1875 C 8.171875 -17.832031 6.328125 -18.96875 4.765625 -20.59375 C 3.210938 -22.21875 2.4375 -24.539062 2.4375 -27.5625 C 2.4375 -30.070312 3.164062 -32.300781 4.625 -34.25 C 6.082031 -36.207031 8.207031 -37.726562 11 -38.8125 C 13.789062 -39.90625 17.085938 -40.453125 20.890625 -40.453125 C 23.703125 -40.453125 26.503906 -40.140625 29.296875 -39.515625 C 32.085938 -38.898438 34.394531 -38.050781 36.21875 -36.96875 L 32.375 -28.75 C 28.863281 -30.71875 25.035156 -31.703125 20.890625 -31.703125 C 18.421875 -31.703125 16.566406 -31.351562 15.328125 -30.65625 C 14.097656 -29.96875 13.484375 -29.082031 13.484375 -28 C 13.484375 -26.769531 14.148438 -25.90625 15.484375 -25.40625 C 16.816406 -24.914062 18.941406 -24.445312 21.859375 -24 C 25.117188 -23.457031 27.785156 -22.875 29.859375 -22.25 C 31.929688 -21.632812 33.734375 -20.515625 35.265625 -18.890625 C 36.796875 -17.265625 37.5625 -14.992188 37.5625 -12.078125 C 37.5625 -9.609375 36.816406 -7.410156 35.328125 -5.484375 C 33.847656 -3.554688 31.6875 -2.0625 28.84375 -1 C 26.007812 0.0625 22.640625 0.59375 18.734375 0.59375 Z M 18.734375 0.59375 "/></g></g></g></g></g><g transform="matrix(1, 0, 0, 1, 424, 111)"><g clip-path="url(#f029fd3f6f)"><g fill="#ffffff" fill-opacity="1"><g transform="translate(0.321858, 292.736799)"><g><path d="M 129.671875 3.6875 C 107.347656 3.6875 87.222656 -1.125 69.296875 -10.75 C 51.367188 -20.382812 37.332031 -33.648438 27.1875 -50.546875 C 17.050781 -67.453125 11.984375 -86.453125 11.984375 -107.546875 C 11.984375 -128.648438 17.050781 -147.648438 27.1875 -164.546875 C 37.332031 -181.453125 51.367188 -194.71875 69.296875 -204.34375 C 87.222656 -213.976562 107.347656 -218.796875 129.671875 -218.796875 C 152.003906 -218.796875 172.082031 -213.976562 189.90625 -204.34375 C 207.726562 -194.71875 221.757812 -181.453125 232 -164.546875 C 242.25 -147.648438 247.375 -128.648438 247.375 -107.546875 C 247.375 -86.453125 242.25 -67.453125 232 -50.546875 C 221.757812 -33.648438 207.726562 -20.382812 189.90625 -10.75 C 172.082031 -1.125 152.003906 3.6875 129.671875 3.6875 Z M 129.671875 -38.71875 C 142.378906 -38.71875 153.851562 -41.632812 164.09375 -47.46875 C 174.34375 -53.3125 182.382812 -61.457031 188.21875 -71.90625 C 194.0625 -82.351562 196.984375 -94.234375 196.984375 -107.546875 C 196.984375 -120.867188 194.0625 -132.753906 188.21875 -143.203125 C 182.382812 -153.648438 174.34375 -161.789062 164.09375 -167.625 C 153.851562 -173.46875 142.378906 -176.390625 129.671875 -176.390625 C 116.972656 -176.390625 105.5 -173.46875 95.25 -167.625 C 85.007812 -161.789062 76.96875 -153.648438 71.125 -143.203125 C 65.289062 -132.753906 62.375 -120.867188 62.375 -107.546875 C 62.375 -94.234375 65.289062 -82.351562 71.125 -71.90625 C 76.96875 -61.457031 85.007812 -53.3125 95.25 -47.46875 C 105.5 -41.632812 116.972656 -38.71875 129.671875 -38.71875 Z M 129.671875 -38.71875 "/></g></g></g><g fill="#ffffff" fill-opacity="1"><g transform="translate(259.639878, 292.736799)"><g><path d="M 190.53125 -228.015625 L 190.53125 0 L 144.734375 0 L 144.734375 -19.046875 C 132.847656 -4.710938 115.640625 2.453125 93.109375 2.453125 C 77.535156 2.453125 63.445312 -1.023438 50.84375 -7.984375 C 38.25 -14.953125 28.367188 -24.890625 21.203125 -37.796875 C 14.035156 -50.703125 10.453125 -65.65625 10.453125 -82.65625 C 10.453125 -99.664062 14.035156 -114.625 21.203125 -127.53125 C 28.367188 -140.4375 38.25 -150.367188 50.84375 -157.328125 C 63.445312 -164.296875 77.535156 -167.78125 93.109375 -167.78125 C 114.210938 -167.78125 130.703125 -161.125 142.578125 -147.8125 L 142.578125 -228.015625 Z M 101.40625 -36.875 C 113.488281 -36.875 123.523438 -41.019531 131.515625 -49.3125 C 139.503906 -57.613281 143.5 -68.726562 143.5 -82.65625 C 143.5 -96.59375 139.503906 -107.707031 131.515625 -116 C 123.523438 -124.300781 113.488281 -128.453125 101.40625 -128.453125 C 89.113281 -128.453125 78.972656 -124.300781 70.984375 -116 C 62.992188 -107.707031 59 -96.59375 59 -82.65625 C 59 -68.726562 62.992188 -57.613281 70.984375 -49.3125 C 78.972656 -41.019531 89.113281 -36.875 101.40625 -36.875 Z M 101.40625 -36.875 "/></g></g></g><g fill="#ffffff" fill-opacity="1"><g transform="translate(472.256086, 292.736799)"><g><path d="M 22.125 -165.328125 L 70.0625 -165.328125 L 70.0625 0 L 22.125 0 Z M 46.09375 -188.375 C 37.28125 -188.375 30.109375 -190.929688 24.578125 -196.046875 C 19.046875 -201.171875 16.28125 -207.523438 16.28125 -215.109375 C 16.28125 -222.691406 19.046875 -229.039062 24.578125 -234.15625 C 30.109375 -239.28125 37.28125 -241.84375 46.09375 -241.84375 C 54.90625 -241.84375 62.078125 -239.382812 67.609375 -234.46875 C 73.140625 -229.550781 75.90625 -223.40625 75.90625 -216.03125 C 75.90625 -208.039062 73.140625 -201.429688 67.609375 -196.203125 C 62.078125 -190.984375 54.90625 -188.375 46.09375 -188.375 Z M 46.09375 -188.375 "/></g></g></g><g fill="#334155" fill-opacity="1"><g transform="translate(564.750777, 292.736799)"><g><path d="M 93.109375 -64.84375 L 70.0625 -42.09375 L 70.0625 0 L 22.125 0 L 22.125 -228.015625 L 70.0625 -228.015625 L 70.0625 -98.953125 L 140.125 -165.328125 L 197.28125 -165.328125 L 128.453125 -95.265625 L 203.4375 0 L 145.34375 0 Z M 93.109375 -64.84375 "/></g></g></g><g fill="#334155" fill-opacity="1"><g transform="translate(767.534967, 292.736799)"><g><path d="M 88.8125 -167.78125 C 114.414062 -167.78125 134.082031 -161.6875 147.8125 -149.5 C 161.539062 -137.3125 168.40625 -118.925781 168.40625 -94.34375 L 168.40625 0 L 123.53125 0 L 123.53125 -20.59375 C 114.519531 -5.226562 97.722656 2.453125 73.140625 2.453125 C 60.429688 2.453125 49.414062 0.300781 40.09375 -4 C 30.78125 -8.300781 23.664062 -14.238281 18.75 -21.8125 C 13.832031 -29.394531 11.375 -38 11.375 -47.625 C 11.375 -62.988281 17.160156 -75.078125 28.734375 -83.890625 C 40.304688 -92.703125 58.179688 -97.109375 82.359375 -97.109375 L 120.453125 -97.109375 C 120.453125 -107.554688 117.273438 -115.59375 110.921875 -121.21875 C 104.578125 -126.851562 95.054688 -129.671875 82.359375 -129.671875 C 73.546875 -129.671875 64.890625 -128.285156 56.390625 -125.515625 C 47.890625 -122.753906 40.664062 -119.019531 34.71875 -114.3125 L 17.515625 -147.8125 C 26.523438 -154.164062 37.328125 -159.082031 49.921875 -162.5625 C 62.523438 -166.039062 75.488281 -167.78125 88.8125 -167.78125 Z M 85.125 -29.8125 C 93.3125 -29.8125 100.582031 -31.703125 106.9375 -35.484375 C 113.289062 -39.273438 117.796875 -44.859375 120.453125 -52.234375 L 120.453125 -69.140625 L 87.578125 -69.140625 C 67.910156 -69.140625 58.078125 -62.6875 58.078125 -49.78125 C 58.078125 -43.632812 60.484375 -38.769531 65.296875 -35.1875 C 70.109375 -31.601562 76.71875 -29.8125 85.125 -29.8125 Z M 85.125 -29.8125 "/></g></g></g><g fill="#334155" fill-opacity="1"><g transform="translate(957.107472, 292.736799)"><g><path d="M 22.125 -228.015625 L 70.0625 -228.015625 L 70.0625 0 L 22.125 0 Z M 22.125 -228.015625 "/></g></g></g></g></g></svg>