<svg xmlns="http://www.w3.org/2000/svg" xmlns:xlink="http://www.w3.org/1999/xlink" width="300" zoomAndPan="magnify" viewBox="0 0 224.87999 89.999999" height="120" preserveAspectRatio="xMidYMid meet" version="1.0"><defs><g/><clipPath id="48008c9a12"><path d="M 0 0.0234375 L 224.761719 0.0234375 L 224.761719 89.976562 L 0 89.976562 Z M 0 0.0234375 " clip-rule="nonzero"/></clipPath><clipPath id="6f9e232d17"><path d="M 31.808594 12.988281 L 224.761719 12.988281 L 224.761719 68.933594 L 31.808594 68.933594 Z M 31.808594 12.988281 " clip-rule="nonzero"/></clipPath><clipPath id="6b5ad40748"><path d="M 0.808594 0.988281 L 193.761719 0.988281 L 193.761719 56.933594 L 0.808594 56.933594 Z M 0.808594 0.988281 " clip-rule="nonzero"/></clipPath><clipPath id="ec1faabf97"><rect x="0" width="194" y="0" height="57"/></clipPath><clipPath id="f34422469d"><path d="M 0.554688 17.949219 L 133.398438 17.949219 L 133.398438 73.882812 L 0.554688 73.882812 Z M 0.554688 17.949219 " clip-rule="nonzero"/></clipPath><clipPath id="ed86f8a2c1"><path d="M 133.230469 23.214844 L 133.230469 68.617188 C 133.230469 71.523438 130.871094 73.882812 127.960938 73.882812 L 5.820312 73.882812 C 2.914062 73.882812 0.554688 71.523438 0.554688 68.617188 L 0.554688 23.214844 C 0.554688 20.308594 2.914062 17.949219 5.820312 17.949219 L 127.960938 17.949219 C 130.871094 17.949219 133.230469 20.308594 133.230469 23.214844 Z M 133.230469 23.214844 " clip-rule="nonzero"/></clipPath><clipPath id="560a20159c"><path d="M 0.554688 0.949219 L 133.367188 0.949219 L 133.367188 56.882812 L 0.554688 56.882812 Z M 0.554688 0.949219 " clip-rule="nonzero"/></clipPath><clipPath id="885f7a41cf"><path d="M 133.230469 6.214844 L 133.230469 51.617188 C 133.230469 54.523438 130.871094 56.882812 127.960938 56.882812 L 5.820312 56.882812 C 2.914062 56.882812 0.554688 54.523438 0.554688 51.617188 L 0.554688 6.214844 C 0.554688 3.308594 2.914062 0.949219 5.820312 0.949219 L 127.960938 0.949219 C 130.871094 0.949219 133.230469 3.308594 133.230469 6.214844 Z M 133.230469 6.214844 " clip-rule="nonzero"/></clipPath><clipPath id="c97e858f7c"><rect x="0" width="134" y="0" height="57"/></clipPath><clipPath id="499ee893a1"><rect x="0" width="52" y="0" height="84"/></clipPath><clipPath id="370c69f480"><path d="M 0.0820312 3 L 3 3 L 3 10 L 0.0820312 10 Z M 0.0820312 3 " clip-rule="nonzero"/></clipPath><clipPath id="1605f0f9a0"><path d="M 48 4 L 53.574219 4 L 53.574219 10 L 48 10 Z M 48 4 " clip-rule="nonzero"/></clipPath><clipPath id="b25b817bc2"><rect x="0" width="54" y="0" height="12"/></clipPath><clipPath id="3cebaf2552"><rect x="0" width="124" y="0" height="44"/></clipPath></defs><g clip-path="url(#48008c9a12)"><path fill="#ffffff" d="M 0 0.0234375 L 224.878906 0.0234375 L 224.878906 89.976562 L 0 89.976562 Z M 0 0.0234375 " fill-opacity="1" fill-rule="nonzero"/><path fill="#ffffff" d="M 0 0.0234375 L 224.878906 0.0234375 L 224.878906 89.976562 L 0 89.976562 Z M 0 0.0234375 " fill-opacity="1" fill-rule="nonzero"/></g><g clip-path="url(#6f9e232d17)"><g transform="matrix(1, 0, 0, 1, 31, 12)"><g clip-path="url(#ec1faabf97)"><g clip-path="url(#6b5ad40748)"><path fill="#ffffff" d="M 0.808594 0.988281 L 193.773438 0.988281 L 193.773438 56.933594 L 0.808594 56.933594 Z M 0.808594 0.988281 " fill-opacity="1" fill-rule="nonzero"/></g></g></g></g><g clip-path="url(#f34422469d)"><g clip-path="url(#ed86f8a2c1)"><g transform="matrix(1, 0, 0, 1, 0, 17)"><g clip-path="url(#c97e858f7c)"><g clip-path="url(#560a20159c)"><g clip-path="url(#885f7a41cf)"><path fill="#334155" d="M 0.554688 0.949219 L 133.179688 0.949219 L 133.179688 56.882812 L 0.554688 56.882812 Z M 0.554688 0.949219 " fill-opacity="1" fill-rule="nonzero"/></g></g></g></g></g></g><g transform="matrix(1, 0, 0, 1, 17, 4)"><g clip-path="url(#499ee893a1)"><g fill="#ffffff" fill-opacity="1"><g transform="translate(1.056316, 66.437391)"><g><path d="M 28.671875 0.828125 C 23.785156 0.828125 19.363281 -0.234375 15.40625 -2.359375 C 11.445312 -4.492188 8.332031 -7.445312 6.0625 -11.21875 C 3.800781 -14.988281 2.671875 -19.253906 2.671875 -24.015625 C 2.671875 -28.773438 3.800781 -33.039062 6.0625 -36.8125 C 8.332031 -40.582031 11.445312 -43.53125 15.40625 -45.65625 C 19.363281 -47.78125 23.8125 -48.84375 28.75 -48.84375 C 32.90625 -48.84375 36.664062 -48.109375 40.03125 -46.640625 C 43.394531 -45.179688 46.21875 -43.082031 48.5 -40.34375 L 41.375 -33.75 C 38.125 -37.5 34.097656 -39.375 29.296875 -39.375 C 26.328125 -39.375 23.675781 -38.722656 21.34375 -37.421875 C 19.007812 -36.117188 17.1875 -34.300781 15.875 -31.96875 C 14.570312 -29.632812 13.921875 -26.984375 13.921875 -24.015625 C 13.921875 -21.035156 14.570312 -18.378906 15.875 -16.046875 C 17.1875 -13.722656 19.007812 -11.90625 21.34375 -10.59375 C 23.675781 -9.289062 26.328125 -8.640625 29.296875 -8.640625 C 34.097656 -8.640625 38.125 -10.539062 41.375 -14.34375 L 48.5 -7.75 C 46.21875 -4.957031 43.382812 -2.828125 40 -1.359375 C 36.613281 0.0976562 32.835938 0.828125 28.671875 0.828125 Z M 28.671875 0.828125 "/></g></g></g></g></g><g transform="matrix(1, 0, 0, 1, 146, 59)"><g clip-path="url(#b25b817bc2)"><g clip-path="url(#370c69f480)"><g fill="#334155" fill-opacity="1"><g transform="translate(0.279406, 9.371822)"><g><path d="M 0.703125 -5.984375 L 2.09375 -5.984375 L 2.09375 0 L 0.703125 0 Z M 0.703125 -5.984375 "/></g></g></g></g><g fill="#334155" fill-opacity="1"><g transform="translate(3.084756, 9.371822)"><g><path d="M 3.40625 -4.671875 C 3.976562 -4.671875 4.4375 -4.5 4.78125 -4.15625 C 5.132812 -3.8125 5.3125 -3.300781 5.3125 -2.625 L 5.3125 0 L 3.984375 0 L 3.984375 -2.421875 C 3.984375 -2.785156 3.898438 -3.054688 3.734375 -3.234375 C 3.578125 -3.421875 3.347656 -3.515625 3.046875 -3.515625 C 2.710938 -3.515625 2.445312 -3.410156 2.25 -3.203125 C 2.050781 -2.992188 1.953125 -2.6875 1.953125 -2.28125 L 1.953125 0 L 0.609375 0 L 0.609375 -4.59375 L 1.890625 -4.59375 L 1.890625 -4.0625 C 2.066406 -4.25 2.285156 -4.394531 2.546875 -4.5 C 2.804688 -4.613281 3.09375 -4.671875 3.40625 -4.671875 Z M 3.40625 -4.671875 "/></g></g></g><g fill="#334155" fill-opacity="1"><g transform="translate(8.994808, 9.371822)"><g><path d="M 3.40625 -4.671875 C 3.976562 -4.671875 4.4375 -4.5 4.78125 -4.15625 C 5.132812 -3.8125 5.3125 -3.300781 5.3125 -2.625 L 5.3125 0 L 3.984375 0 L 3.984375 -2.421875 C 3.984375 -2.785156 3.898438 -3.054688 3.734375 -3.234375 C 3.578125 -3.421875 3.347656 -3.515625 3.046875 -3.515625 C 2.710938 -3.515625 2.445312 -3.410156 2.25 -3.203125 C 2.050781 -2.992188 1.953125 -2.6875 1.953125 -2.28125 L 1.953125 0 L 0.609375 0 L 0.609375 -4.59375 L 1.890625 -4.59375 L 1.890625 -4.0625 C 2.066406 -4.25 2.285156 -4.394531 2.546875 -4.5 C 2.804688 -4.613281 3.09375 -4.671875 3.40625 -4.671875 Z M 3.40625 -4.671875 "/></g></g></g><g fill="#334155" fill-opacity="1"><g transform="translate(14.904859, 9.371822)"><g><path d="M 2.796875 0.0625 C 2.316406 0.0625 1.882812 -0.0351562 1.5 -0.234375 C 1.113281 -0.429688 0.8125 -0.707031 0.59375 -1.0625 C 0.382812 -1.425781 0.28125 -1.835938 0.28125 -2.296875 C 0.28125 -2.753906 0.382812 -3.160156 0.59375 -3.515625 C 0.8125 -3.878906 1.113281 -4.160156 1.5 -4.359375 C 1.882812 -4.566406 2.316406 -4.671875 2.796875 -4.671875 C 3.285156 -4.671875 3.71875 -4.566406 4.09375 -4.359375 C 4.476562 -4.160156 4.78125 -3.878906 5 -3.515625 C 5.21875 -3.160156 5.328125 -2.753906 5.328125 -2.296875 C 5.328125 -1.835938 5.21875 -1.425781 5 -1.0625 C 4.78125 -0.707031 4.476562 -0.429688 4.09375 -0.234375 C 3.71875 -0.0351562 3.285156 0.0625 2.796875 0.0625 Z M 2.796875 -1.03125 C 3.140625 -1.03125 3.421875 -1.144531 3.640625 -1.375 C 3.859375 -1.601562 3.96875 -1.910156 3.96875 -2.296875 C 3.96875 -2.679688 3.859375 -2.988281 3.640625 -3.21875 C 3.421875 -3.457031 3.140625 -3.578125 2.796875 -3.578125 C 2.460938 -3.578125 2.179688 -3.457031 1.953125 -3.21875 C 1.734375 -2.988281 1.625 -2.679688 1.625 -2.296875 C 1.625 -1.910156 1.734375 -1.601562 1.953125 -1.375 C 2.179688 -1.144531 2.460938 -1.03125 2.796875 -1.03125 Z M 2.796875 -1.03125 "/></g></g></g><g fill="#334155" fill-opacity="1"><g transform="translate(20.507007, 9.371822)"><g><path d="M 5.171875 -4.59375 L 3.234375 0 L 1.859375 0 L -0.0625 -4.59375 L 1.3125 -4.59375 L 2.578125 -1.46875 L 3.890625 -4.59375 Z M 5.171875 -4.59375 "/></g></g></g><g fill="#334155" fill-opacity="1"><g transform="translate(25.62164, 9.371822)"><g><path d="M 2.46875 -4.671875 C 3.175781 -4.671875 3.722656 -4.5 4.109375 -4.15625 C 4.492188 -3.820312 4.6875 -3.3125 4.6875 -2.625 L 4.6875 0 L 3.4375 0 L 3.4375 -0.578125 C 3.1875 -0.148438 2.71875 0.0625 2.03125 0.0625 C 1.675781 0.0625 1.367188 0.00390625 1.109375 -0.109375 C 0.847656 -0.234375 0.648438 -0.398438 0.515625 -0.609375 C 0.378906 -0.816406 0.3125 -1.054688 0.3125 -1.328125 C 0.3125 -1.753906 0.472656 -2.085938 0.796875 -2.328125 C 1.117188 -2.578125 1.617188 -2.703125 2.296875 -2.703125 L 3.34375 -2.703125 C 3.34375 -2.992188 3.253906 -3.21875 3.078125 -3.375 C 2.910156 -3.53125 2.648438 -3.609375 2.296875 -3.609375 C 2.046875 -3.609375 1.800781 -3.566406 1.5625 -3.484375 C 1.332031 -3.410156 1.132812 -3.304688 0.96875 -3.171875 L 0.484375 -4.109375 C 0.734375 -4.285156 1.035156 -4.421875 1.390625 -4.515625 C 1.742188 -4.617188 2.101562 -4.671875 2.46875 -4.671875 Z M 2.375 -0.828125 C 2.59375 -0.828125 2.789062 -0.878906 2.96875 -0.984375 C 3.144531 -1.085938 3.269531 -1.242188 3.34375 -1.453125 L 3.34375 -1.921875 L 2.4375 -1.921875 C 1.882812 -1.921875 1.609375 -1.742188 1.609375 -1.390625 C 1.609375 -1.210938 1.675781 -1.070312 1.8125 -0.96875 C 1.945312 -0.875 2.132812 -0.828125 2.375 -0.828125 Z M 2.375 -0.828125 "/></g></g></g><g fill="#334155" fill-opacity="1"><g transform="translate(30.898776, 9.371822)"><g><path d="M 3.578125 -0.21875 C 3.453125 -0.125 3.289062 -0.0507812 3.09375 0 C 2.90625 0.0390625 2.707031 0.0625 2.5 0.0625 C 1.945312 0.0625 1.519531 -0.0703125 1.21875 -0.34375 C 0.925781 -0.625 0.78125 -1.035156 0.78125 -1.578125 L 0.78125 -3.46875 L 0.0625 -3.46875 L 0.0625 -4.5 L 0.78125 -4.5 L 0.78125 -5.609375 L 2.109375 -5.609375 L 2.109375 -4.5 L 3.25 -4.5 L 3.25 -3.46875 L 2.109375 -3.46875 L 2.109375 -1.59375 C 2.109375 -1.40625 2.15625 -1.253906 2.25 -1.140625 C 2.351562 -1.035156 2.5 -0.984375 2.6875 -0.984375 C 2.894531 -0.984375 3.070312 -1.039062 3.21875 -1.15625 Z M 3.578125 -0.21875 "/></g></g></g><g fill="#334155" fill-opacity="1"><g transform="translate(34.619286, 9.371822)"><g><path d="M 0.609375 -4.59375 L 1.953125 -4.59375 L 1.953125 0 L 0.609375 0 Z M 1.28125 -5.234375 C 1.03125 -5.234375 0.828125 -5.304688 0.671875 -5.453125 C 0.523438 -5.597656 0.453125 -5.773438 0.453125 -5.984375 C 0.453125 -6.191406 0.523438 -6.363281 0.671875 -6.5 C 0.828125 -6.644531 1.03125 -6.71875 1.28125 -6.71875 C 1.519531 -6.71875 1.71875 -6.648438 1.875 -6.515625 C 2.03125 -6.378906 2.109375 -6.210938 2.109375 -6.015625 C 2.109375 -5.785156 2.03125 -5.597656 1.875 -5.453125 C 1.71875 -5.304688 1.519531 -5.234375 1.28125 -5.234375 Z M 1.28125 -5.234375 "/></g></g></g><g fill="#334155" fill-opacity="1"><g transform="translate(37.193711, 9.371822)"><g><path d="M 2.796875 0.0625 C 2.316406 0.0625 1.882812 -0.0351562 1.5 -0.234375 C 1.113281 -0.429688 0.8125 -0.707031 0.59375 -1.0625 C 0.382812 -1.425781 0.28125 -1.835938 0.28125 -2.296875 C 0.28125 -2.753906 0.382812 -3.160156 0.59375 -3.515625 C 0.8125 -3.878906 1.113281 -4.160156 1.5 -4.359375 C 1.882812 -4.566406 2.316406 -4.671875 2.796875 -4.671875 C 3.285156 -4.671875 3.71875 -4.566406 4.09375 -4.359375 C 4.476562 -4.160156 4.78125 -3.878906 5 -3.515625 C 5.21875 -3.160156 5.328125 -2.753906 5.328125 -2.296875 C 5.328125 -1.835938 5.21875 -1.425781 5 -1.0625 C 4.78125 -0.707031 4.476562 -0.429688 4.09375 -0.234375 C 3.71875 -0.0351562 3.285156 0.0625 2.796875 0.0625 Z M 2.796875 -1.03125 C 3.140625 -1.03125 3.421875 -1.144531 3.640625 -1.375 C 3.859375 -1.601562 3.96875 -1.910156 3.96875 -2.296875 C 3.96875 -2.679688 3.859375 -2.988281 3.640625 -3.21875 C 3.421875 -3.457031 3.140625 -3.578125 2.796875 -3.578125 C 2.460938 -3.578125 2.179688 -3.457031 1.953125 -3.21875 C 1.734375 -2.988281 1.625 -2.679688 1.625 -2.296875 C 1.625 -1.910156 1.734375 -1.601562 1.953125 -1.375 C 2.179688 -1.144531 2.460938 -1.03125 2.796875 -1.03125 Z M 2.796875 -1.03125 "/></g></g></g><g fill="#334155" fill-opacity="1"><g transform="translate(42.795859, 9.371822)"><g><path d="M 3.40625 -4.671875 C 3.976562 -4.671875 4.4375 -4.5 4.78125 -4.15625 C 5.132812 -3.8125 5.3125 -3.300781 5.3125 -2.625 L 5.3125 0 L 3.984375 0 L 3.984375 -2.421875 C 3.984375 -2.785156 3.898438 -3.054688 3.734375 -3.234375 C 3.578125 -3.421875 3.347656 -3.515625 3.046875 -3.515625 C 2.710938 -3.515625 2.445312 -3.410156 2.25 -3.203125 C 2.050781 -2.992188 1.953125 -2.6875 1.953125 -2.28125 L 1.953125 0 L 0.609375 0 L 0.609375 -4.59375 L 1.890625 -4.59375 L 1.890625 -4.0625 C 2.066406 -4.25 2.285156 -4.394531 2.546875 -4.5 C 2.804688 -4.613281 3.09375 -4.671875 3.40625 -4.671875 Z M 3.40625 -4.671875 "/></g></g></g><g clip-path="url(#1605f0f9a0)"><g fill="#334155" fill-opacity="1"><g transform="translate(48.70591, 9.371822)"><g><path d="M 2.15625 0.0625 C 1.78125 0.0625 1.410156 0.015625 1.046875 -0.078125 C 0.679688 -0.171875 0.390625 -0.285156 0.171875 -0.421875 L 0.609375 -1.390625 C 0.816406 -1.253906 1.066406 -1.144531 1.359375 -1.0625 C 1.648438 -0.976562 1.9375 -0.9375 2.21875 -0.9375 C 2.78125 -0.9375 3.0625 -1.078125 3.0625 -1.359375 C 3.0625 -1.492188 2.984375 -1.585938 2.828125 -1.640625 C 2.671875 -1.691406 2.4375 -1.738281 2.125 -1.78125 C 1.75 -1.84375 1.4375 -1.910156 1.1875 -1.984375 C 0.945312 -2.054688 0.734375 -2.1875 0.546875 -2.375 C 0.367188 -2.5625 0.28125 -2.828125 0.28125 -3.171875 C 0.28125 -3.460938 0.363281 -3.722656 0.53125 -3.953125 C 0.695312 -4.179688 0.941406 -4.359375 1.265625 -4.484375 C 1.585938 -4.609375 1.96875 -4.671875 2.40625 -4.671875 C 2.726562 -4.671875 3.050781 -4.632812 3.375 -4.5625 C 3.695312 -4.488281 3.960938 -4.390625 4.171875 -4.265625 L 3.734375 -3.3125 C 3.328125 -3.539062 2.882812 -3.65625 2.40625 -3.65625 C 2.125 -3.65625 1.910156 -3.613281 1.765625 -3.53125 C 1.628906 -3.457031 1.5625 -3.359375 1.5625 -3.234375 C 1.5625 -3.085938 1.632812 -2.984375 1.78125 -2.921875 C 1.9375 -2.867188 2.179688 -2.816406 2.515625 -2.765625 C 2.890625 -2.703125 3.195312 -2.632812 3.4375 -2.5625 C 3.675781 -2.5 3.882812 -2.367188 4.0625 -2.171875 C 4.238281 -1.984375 4.328125 -1.722656 4.328125 -1.390625 C 4.328125 -1.109375 4.242188 -0.851562 4.078125 -0.625 C 3.910156 -0.40625 3.660156 -0.234375 3.328125 -0.109375 C 3.003906 0.00390625 2.613281 0.0625 2.15625 0.0625 Z M 2.15625 0.0625 "/></g></g></g></g></g></g><g transform="matrix(1, 0, 0, 1, 66, 24)"><g clip-path="url(#3cebaf2552)"><g fill="#ffffff" fill-opacity="1"><g transform="translate(0.892168, 34.751892)"><g><path d="M 15.140625 0.4375 C 12.535156 0.4375 10.1875 -0.125 8.09375 -1.25 C 6 -2.375 4.359375 -3.921875 3.171875 -5.890625 C 1.992188 -7.867188 1.40625 -10.09375 1.40625 -12.5625 C 1.40625 -15.03125 1.992188 -17.25 3.171875 -19.21875 C 4.359375 -21.195312 6 -22.742188 8.09375 -23.859375 C 10.1875 -24.984375 12.535156 -25.546875 15.140625 -25.546875 C 17.753906 -25.546875 20.097656 -24.984375 22.171875 -23.859375 C 24.253906 -22.742188 25.894531 -21.195312 27.09375 -19.21875 C 28.289062 -17.25 28.890625 -15.03125 28.890625 -12.5625 C 28.890625 -10.09375 28.289062 -7.867188 27.09375 -5.890625 C 25.894531 -3.921875 24.253906 -2.375 22.171875 -1.25 C 20.097656 -0.125 17.753906 0.4375 15.140625 0.4375 Z M 15.140625 -4.515625 C 16.628906 -4.515625 17.96875 -4.851562 19.15625 -5.53125 C 20.351562 -6.21875 21.289062 -7.171875 21.96875 -8.390625 C 22.65625 -9.617188 23 -11.007812 23 -12.5625 C 23 -14.113281 22.65625 -15.5 21.96875 -16.71875 C 21.289062 -17.945312 20.351562 -18.898438 19.15625 -19.578125 C 17.96875 -20.253906 16.628906 -20.59375 15.140625 -20.59375 C 13.660156 -20.59375 12.320312 -20.253906 11.125 -19.578125 C 9.925781 -18.898438 8.984375 -17.945312 8.296875 -16.71875 C 7.617188 -15.5 7.28125 -14.113281 7.28125 -12.5625 C 7.28125 -11.007812 7.617188 -9.617188 8.296875 -8.390625 C 8.984375 -7.171875 9.925781 -6.21875 11.125 -5.53125 C 12.320312 -4.851562 13.660156 -4.515625 15.140625 -4.515625 Z M 15.140625 -4.515625 "/></g></g></g><g fill="#ffffff" fill-opacity="1"><g transform="translate(31.188554, 34.751892)"><g><path d="M 22.25 -26.625 L 22.25 0 L 16.90625 0 L 16.90625 -2.21875 C 15.519531 -0.550781 13.507812 0.28125 10.875 0.28125 C 9.050781 0.28125 7.40625 -0.125 5.9375 -0.9375 C 4.46875 -1.75 3.3125 -2.90625 2.46875 -4.40625 C 1.632812 -5.914062 1.21875 -7.664062 1.21875 -9.65625 C 1.21875 -11.644531 1.632812 -13.390625 2.46875 -14.890625 C 3.3125 -16.398438 4.46875 -17.5625 5.9375 -18.375 C 7.40625 -19.1875 9.050781 -19.59375 10.875 -19.59375 C 13.34375 -19.59375 15.269531 -18.816406 16.65625 -17.265625 L 16.65625 -26.625 Z M 11.84375 -4.3125 C 13.257812 -4.3125 14.429688 -4.796875 15.359375 -5.765625 C 16.296875 -6.734375 16.765625 -8.03125 16.765625 -9.65625 C 16.765625 -11.28125 16.296875 -12.578125 15.359375 -13.546875 C 14.429688 -14.515625 13.257812 -15 11.84375 -15 C 10.40625 -15 9.21875 -14.515625 8.28125 -13.546875 C 7.351562 -12.578125 6.890625 -11.28125 6.890625 -9.65625 C 6.890625 -8.03125 7.351562 -6.734375 8.28125 -5.765625 C 9.21875 -4.796875 10.40625 -4.3125 11.84375 -4.3125 Z M 11.84375 -4.3125 "/></g></g></g><g fill="#ffffff" fill-opacity="1"><g transform="translate(56.02871, 34.751892)"><g><path d="M 2.578125 -19.3125 L 8.1875 -19.3125 L 8.1875 0 L 2.578125 0 Z M 5.390625 -22 C 4.359375 -22 3.519531 -22.296875 2.875 -22.890625 C 2.226562 -23.492188 1.90625 -24.238281 1.90625 -25.125 C 1.90625 -26.007812 2.226562 -26.75 2.875 -27.34375 C 3.519531 -27.945312 4.359375 -28.25 5.390625 -28.25 C 6.421875 -28.25 7.257812 -27.957031 7.90625 -27.375 C 8.550781 -26.800781 8.875 -26.085938 8.875 -25.234375 C 8.875 -24.296875 8.550781 -23.519531 7.90625 -22.90625 C 7.257812 -22.300781 6.421875 -22 5.390625 -22 Z M 5.390625 -22 "/></g></g></g><g fill="#334155" fill-opacity="1"><g transform="translate(66.834327, 34.751892)"><g><path d="M 10.875 -7.578125 L 8.1875 -4.921875 L 8.1875 0 L 2.578125 0 L 2.578125 -26.625 L 8.1875 -26.625 L 8.1875 -11.5625 L 16.359375 -19.3125 L 23.046875 -19.3125 L 15 -11.125 L 23.765625 0 L 16.96875 0 Z M 10.875 -7.578125 "/></g></g></g><g fill="#334155" fill-opacity="1"><g transform="translate(90.52581, 34.751892)"><g><path d="M 10.375 -19.59375 C 13.363281 -19.59375 15.660156 -18.878906 17.265625 -17.453125 C 18.867188 -16.035156 19.671875 -13.890625 19.671875 -11.015625 L 19.671875 0 L 14.421875 0 L 14.421875 -2.40625 C 13.367188 -0.613281 11.410156 0.28125 8.546875 0.28125 C 7.054688 0.28125 5.765625 0.03125 4.671875 -0.46875 C 3.585938 -0.96875 2.757812 -1.660156 2.1875 -2.546875 C 1.613281 -3.429688 1.328125 -4.4375 1.328125 -5.5625 C 1.328125 -7.351562 2.003906 -8.765625 3.359375 -9.796875 C 4.710938 -10.828125 6.800781 -11.34375 9.625 -11.34375 L 14.0625 -11.34375 C 14.0625 -12.5625 13.691406 -13.5 12.953125 -14.15625 C 12.210938 -14.8125 11.101562 -15.140625 9.625 -15.140625 C 8.59375 -15.140625 7.578125 -14.976562 6.578125 -14.65625 C 5.585938 -14.332031 4.75 -13.894531 4.0625 -13.34375 L 2.046875 -17.265625 C 3.097656 -18.003906 4.359375 -18.578125 5.828125 -18.984375 C 7.304688 -19.390625 8.820312 -19.59375 10.375 -19.59375 Z M 9.9375 -3.484375 C 10.894531 -3.484375 11.742188 -3.703125 12.484375 -4.140625 C 13.234375 -4.585938 13.757812 -5.238281 14.0625 -6.09375 L 14.0625 -8.078125 L 10.234375 -8.078125 C 7.929688 -8.078125 6.78125 -7.320312 6.78125 -5.8125 C 6.78125 -5.09375 7.0625 -4.523438 7.625 -4.109375 C 8.1875 -3.691406 8.957031 -3.484375 9.9375 -3.484375 Z M 9.9375 -3.484375 "/></g></g></g><g fill="#334155" fill-opacity="1"><g transform="translate(112.673756, 34.751892)"><g><path d="M 2.578125 -26.625 L 8.1875 -26.625 L 8.1875 0 L 2.578125 0 Z M 2.578125 -26.625 "/></g></g></g></g></g></svg>